<svg xmlns="http://www.w3.org/2000/svg" width="172" height="103" viewBox="0 0 172 103" fill="none">
  <path d="M82.0972 11.6973C82.7588 11.2815 83.5031 10.9073 84.2475 10.6163C87.5556 9.20261 91.236 9.70154 93.0141 12.5288C93.6757 13.5267 93.8412 15.0235 91.939 15.6056C91.9803 12.4041 89.2924 9.16103 85.6534 10.8241C84.8677 11.1568 84.1234 11.6557 83.4618 12.2378C89.1684 14.5246 92.6419 19.0981 88.1346 23.048C86.8526 24.129 83.958 25.1269 80.5671 25.4595C88.0519 27.4968 88.9616 34.2324 85.0745 38.0576C80.1536 42.8806 71.8005 44.0448 64.2744 39.9702C61.1316 42.7143 57.4927 44.7932 53.6469 46.1652C52.6131 46.4979 51.4966 46.8305 50.4214 47.08C55.0529 54.6055 64.812 54.855 69.6502 49.4083C70.3118 48.6599 70.4772 49.0757 69.9396 49.6578C64.812 55.645 54.2258 55.4787 48.4779 47.4542C43.2675 48.2857 38.2226 47.5373 35.1212 43.7122C34.3355 42.7559 33.9633 41.0096 35.8655 40.4275C37.3542 46.2484 42.6886 47.5373 48.023 46.7473C46.9479 45.0426 46.0381 43.0469 45.4592 40.7601C38.4707 40.3444 36.5685 33.6503 38.1399 27.7047C41.1999 16.4371 51.8688 10.2005 63.6128 9.28576C69.8156 8.82841 76.3906 9.70154 82.0972 11.7389V11.6973ZM50.0079 46.29C51.0831 46.0405 52.1996 45.7495 53.192 45.3337C61.6692 42.049 65.3082 35.5213 70.2705 26.7484L72.4621 23.0064C74.7365 19.1813 77.4244 14.8572 81.2701 12.2378C75.7703 10.3252 69.5675 9.65996 63.6955 10.2421C52.9853 11.3231 43.3916 19.3476 41.5721 29.1599C40.7864 33.4009 41.2826 38.2239 45.087 39.5128C44.8803 38.5565 44.7976 37.5586 44.7562 36.5192C44.5494 32.2783 46.5343 25.1685 51.3725 20.2623C60.6354 10.9073 69.5261 14.6909 64.8947 26.1663C62.703 31.6546 57.9475 37.6002 51.6207 39.7207C50.3801 40.1365 49.2222 40.4275 48.1884 40.5522C48.4779 42.7974 49.1809 44.71 50.0079 46.29ZM48.023 39.7623C48.602 39.7207 49.3049 39.596 50.0079 39.4296C57.6581 37.5171 61.9587 30.9894 64.0263 26.1248C67.8307 17.1855 62.8684 12.1131 54.8875 20.6781C49.9252 25.9585 47.32 33.8998 47.9817 39.7623H48.023ZM74.9019 25.5427L72.7102 29.451C70.684 33.1098 67.9961 36.5192 64.812 39.3881C71.4283 42.839 79.2439 41.8827 82.552 35.8124C84.9504 31.3636 83.2964 25.5011 74.8605 25.5842L74.9019 25.5427ZM82.7588 12.7783C80.7325 14.7325 79.2852 17.435 77.8379 20.0544L75.4395 24.5448C80.6085 25.0437 84.1234 23.3806 85.6121 21.7591C88.3827 18.5576 87.4316 14.7325 82.7174 12.7783H82.7588Z" fill="#F9F7F4"/>
  <path d="M92.7243 37.517C91.0288 40.5522 93.9648 39.3464 95.867 37.808C97.6452 36.3528 100.085 33.8581 101.574 31.2387C101.822 30.823 102.111 31.0724 101.987 31.4466C100.209 34.3986 97.976 36.8933 95.867 38.5564C94.5438 39.6374 90.698 41.9658 89.5815 39.5543C89.0853 38.598 89.2507 37.018 90.574 34.565L95.867 24.9605C101.284 15.3976 108.728 5.00315 118.28 1.63535C125.02 -0.693001 131.058 -1.0672 135.193 4.08844C135.979 5.04473 136.351 6.791 134.449 7.37309C132.422 -0.443535 125.02 -0.235645 118.611 2.21744C110.134 5.50209 103.724 17.726 98.8857 26.4989L92.7243 37.517Z" fill="#F9F7F4"/>
  <path d="M99.7952 40.5523C98.3478 40.5523 96.9005 38.7644 99.2576 34.5651L104.551 24.8774C105.998 24.8774 107.776 25.8337 106.122 28.7026L101.325 37.4339C99.7952 40.2612 102.07 39.3881 104.468 37.3924C105.667 36.4361 107.032 35.1472 108.148 33.5672L111.126 28.1205C112.697 25.2101 114.144 24.8774 116.625 24.8774L109.678 37.4755C107.983 40.5107 110.423 39.2218 112.408 37.7666C114.144 36.4776 116.543 33.8167 118.031 31.1973C118.28 30.7815 118.61 31.031 118.445 31.4052C115.219 36.8518 110.878 40.5107 108.024 40.5107C106.784 40.5107 105.709 39.1802 106.784 36.1866C104.716 38.3486 101.615 40.5107 99.8365 40.5107L99.7952 40.5523Z" fill="#F9F7F4"/>
  <path d="M126.756 24.5865C129.444 24.5865 131.429 26.2496 129.527 29.1185C127.831 31.821 122.993 33.3594 118.816 34.0662C117.907 36.2283 117.865 38.224 119.23 39.0556C121.38 40.3445 124.647 39.2635 127.211 37.3509C129.237 35.6878 131.015 33.692 132.504 31.1974C132.752 30.7816 133.083 31.0311 132.917 31.4053C131.47 33.8583 129.775 36.062 127.459 37.8498C124.771 39.9287 121.794 41.176 118.279 40.1782C115.798 39.5129 113.978 36.6025 115.88 32.2784C117.783 28.1206 122.001 24.5449 126.756 24.5449V24.5865ZM120.429 31.1142C119.933 31.9042 119.478 32.6942 119.106 33.4426C122.125 32.7773 124.606 31.1974 126.26 28.4948C127.418 26.5407 127.459 25.1686 126.425 25.1686C125.102 25.1686 122.538 27.7048 120.47 31.1142H120.429Z" fill="#F9F7F4"/>
  <path d="M54.8451 51.1962L51.5369 50.2815C49.8001 51.8198 46.5333 56.5181 42.7289 65C38.5937 74.0639 38.8418 77.5981 40.041 77.3486C41.8192 77.016 44.7552 73.565 46.492 71.4445C52.6121 64.1684 57.1195 57.2665 60.1382 53.4829C62.6193 50.4062 66.0929 47.2047 70.2694 47.2047C71.7168 47.2047 72.9987 47.9947 73.4949 49.0341C73.5362 49.3252 73.2054 49.4499 73.04 49.1173C72.5851 48.2026 71.4686 47.5373 70.0627 47.9115C68.3259 48.3689 66.0515 51.113 64.6455 53.6908L52.9842 74.8123C51.3302 77.8475 54.4316 76.6418 56.4992 75.3113C59.2284 73.5234 61.0065 71.3614 62.7433 68.6173C63.0328 68.1599 63.3223 68.4094 63.1569 68.7836C60.7584 72.8582 56.7886 76.8497 52.8602 77.7228C51.9091 77.9723 50.6272 78.1386 49.9242 77.1823C49.3453 76.3507 49.1799 74.6045 50.6685 71.9019L60.3863 54.4392L53.9353 63.1706C51.2888 66.7463 42.6876 78.3465 39.7929 77.8891C37.8907 77.5981 37.0223 75.8934 37.1464 73.0661C37.3531 70.1141 38.387 66.4136 40.2891 62.7132C41.2816 60.7591 42.3568 58.7633 43.556 56.9339C41.7365 59.2207 39.3794 62.2559 37.3531 64.9584C31.9774 71.8187 25.5678 80.4669 18.2898 83.6268L16.2222 84.3752C20.8537 91.8592 30.6541 92.1087 35.451 86.662C36.1126 85.9136 36.278 86.3294 35.7404 86.9115C30.6128 92.8987 20.068 92.7324 14.32 84.8326C9.60589 85.7473 4.14741 85.0405 0.92195 81.0074C0.13626 80.0511 -0.235909 78.3049 1.66629 77.7228C3.32037 83.4605 8.69614 85.0405 13.8652 84.2089C12.7073 82.5042 11.8389 80.4669 11.2186 78.0554C4.23012 77.6396 2.32792 70.904 3.8993 65C5.8842 57.8486 11.0946 52.2772 18.1244 49.4083C27.1392 45.6663 39.9583 46.1653 49.8001 48.9094C53.4805 47.371 55.7135 48.7015 54.8037 51.1962H54.8451ZM15.8501 83.7931C16.5944 83.5853 17.2974 83.3358 18.0004 83.0447C24.6167 80.259 30.6955 72.484 36.7329 64.3763L42.1913 57.1002C43.8868 54.855 46.4093 51.3625 48.9317 49.6994C40.2892 46.9552 26.8084 46.29 19.0755 50.6972C12.7073 54.3977 8.36533 61.1748 7.37288 66.4552C6.58719 70.6961 7.08341 75.5192 10.8878 76.8081C10.681 75.8518 10.5983 74.8539 10.557 73.8145C10.3502 69.5735 12.3351 62.4637 17.1733 57.5576C26.4362 48.2026 35.3269 51.9862 30.6955 63.4616C28.5038 68.9499 23.7483 74.8955 17.4214 77.016C16.1809 77.4317 15.023 77.7228 13.9892 77.8475C14.32 80.1343 14.9817 82.0885 15.8914 83.7516L15.8501 83.7931ZM13.8238 77.1407C14.4027 77.0991 15.1057 76.9744 15.8087 76.8081C23.4588 74.8955 27.7595 68.3678 29.8271 63.5032C33.6315 54.564 28.6692 49.4915 20.6883 58.0565C15.726 63.3369 13.1208 71.2782 13.7825 77.1407H13.8238Z" fill="#F9F7F4"/>
  <path d="M68.3674 76.4338C68.3674 76.4338 68.5742 76.6001 68.6982 76.6417C70.1455 77.1407 72.1718 76.1428 73.371 75.2281C75.1078 73.8976 77.5062 71.2782 78.9535 68.6588C79.1603 68.243 79.4911 68.4925 79.2843 68.8667C77.6303 71.6524 75.7281 74.0639 73.7845 75.6439C71.5102 77.4733 69.2358 78.0969 67.8298 77.9722C67.2509 77.9306 66.672 77.7227 66.2998 77.4733C65.266 77.8059 64.2735 78.0138 63.0743 78.0138C58.6497 78.0138 58.6497 74.4797 61.0894 69.9893C63.5705 65.5405 67.5403 62.0063 71.8823 62.0063C76.2243 62.0063 76.3897 65.5405 73.9499 69.9893C72.6267 72.3176 70.6831 74.8123 68.2847 76.4338H68.3674ZM65.4314 76.4754C64.7698 74.9786 66.2584 73.066 68.8223 72.9829C70.3936 70.8208 71.7583 68.5341 72.544 66.0394C73.2883 63.711 72.6267 62.7547 71.5515 62.7547C70.0215 62.7547 67.0028 65.9562 64.7698 69.9893C62.5367 74.0639 61.8751 77.3485 63.4878 77.3485C63.7773 77.3485 64.4803 77.1407 65.4727 76.4338L65.4314 76.4754Z" fill="#F9F7F4"/>
  <path d="M85.9444 77.6395C80.5273 87.2024 73.2079 97.5969 63.6143 100.965C56.8739 103.293 50.8365 103.667 46.7012 98.5116C45.9156 97.5553 45.5434 95.809 47.4456 95.2269C49.4718 103.044 56.8739 102.836 63.2834 100.383C71.7606 97.0979 78.0048 84.7909 83.0084 76.1012L83.546 75.1449C81.6024 77.2238 80.0724 78.0969 78.5424 77.9722C75.0688 77.6811 75.3169 73.6897 77.3431 69.9892C79.1626 66.663 83.4633 61.2995 87.4744 62.0063C88.7563 62.2558 89.2112 63.3368 89.0044 65.0415C90.4931 62.5884 91.9818 62.2973 94.2975 62.2973L85.903 77.598L85.9444 77.6395ZM81.2302 69.9477C78.9972 73.9807 78.2529 76.9327 79.9897 76.9327C81.313 76.9327 84.1249 73.9807 86.3579 69.9477C88.5909 65.9146 89.0458 63.1705 87.6812 63.1705C86.3993 63.2121 83.4633 65.9146 81.2302 69.9477Z" fill="#F9F7F4"/>
  <path d="M102.069 77.6395C96.6523 87.2024 89.3329 97.5969 79.7393 100.965C72.9989 103.293 66.9615 103.667 62.8262 98.5116C62.0406 97.5553 61.6684 95.809 63.5706 95.2269C65.5968 103.044 72.9989 102.836 79.4084 100.383C87.8856 97.0979 94.1298 84.7909 99.1334 76.1012L99.671 75.1449C97.7274 77.2238 96.1974 78.0969 94.6674 77.9722C91.1938 77.6811 91.4419 73.6897 93.4682 69.9892C95.2876 66.663 99.5883 61.2995 103.599 62.0063C104.881 62.2558 105.336 63.3368 105.129 65.0415C106.618 62.5884 108.107 62.2973 110.423 62.2973L102.028 77.598L102.069 77.6395ZM97.3552 69.9477C95.1222 73.9807 94.3779 76.9327 96.1147 76.9327C97.438 76.9327 100.25 73.9807 102.483 69.9477C104.716 65.9146 105.171 63.1705 103.806 63.1705C102.524 63.2121 99.5883 65.9146 97.3552 69.9477Z" fill="#F9F7F4"/>
  <path d="M121.217 65.0415C122.705 62.5885 124.153 62.2974 126.51 62.2974L119.562 74.8955C117.867 77.9307 120.265 76.6417 122.292 75.1865C124.07 73.8976 126.344 71.2366 127.874 68.6172C128.122 68.2015 128.453 68.4509 128.288 68.8251C125.062 74.2718 120.72 77.9307 117.867 77.9307C116.709 77.9307 115.675 76.8912 116.296 74.4797C114.476 76.6833 112.533 77.9307 110.672 77.9307C107.198 77.7643 107.446 73.6481 109.473 69.9477C111.292 66.6215 115.634 61.258 119.604 61.9648C120.886 62.2143 121.382 63.2953 121.175 65L121.217 65.0415ZM113.401 69.9477C111.168 73.9808 110.465 76.9328 112.202 76.9328C113.484 76.9328 116.254 73.9808 118.487 69.9477C120.72 65.9147 121.217 63.1705 119.811 63.1705C118.529 63.2121 115.593 65.9147 113.36 69.9477H113.401Z" fill="#F9F7F4"/>
  <path d="M144.744 68.8667C141.519 74.3134 137.177 77.9722 134.323 77.9722C132.835 77.9722 131.511 76.1844 133.786 71.985L137.59 65.1247C139.12 62.339 137.135 62.9211 134.695 64.8752C133.496 65.8315 132.173 67.2036 131.139 68.8251L126.218 77.6812C124.771 77.6812 122.993 76.7249 124.564 73.7729L130.85 62.2974C132.256 62.2974 133.992 63.2537 132.669 65.8315C134.654 63.8358 137.342 62.0063 139.161 62.0063C140.609 62.0063 142.056 63.7942 139.74 67.9935L135.936 74.937C134.241 77.9722 136.68 76.6833 138.665 75.2281C140.402 73.9392 142.8 71.2782 144.289 68.6588C144.537 68.243 144.868 68.4925 144.703 68.8667H144.744Z" fill="#F9F7F4"/>
  <path d="M153.141 62.0064C155.829 62.0064 157.814 63.6695 155.911 66.5384C154.216 69.241 149.378 70.7793 145.201 71.4862C144.291 73.6482 144.25 75.6439 145.615 76.4755C147.765 77.7644 151.032 76.6834 153.596 74.7708C155.622 73.1077 157.4 71.112 158.889 68.6173C159.137 68.2015 159.468 68.451 159.302 68.8252C157.855 71.2783 156.159 73.4819 153.844 75.2697C151.156 77.3486 148.179 78.596 144.664 77.5981C142.182 76.9328 140.363 74.0224 142.265 69.6983C144.167 65.5405 148.385 61.9648 153.141 61.9648V62.0064ZM146.773 68.5341C146.276 69.3241 145.821 70.1141 145.449 70.8625C148.468 70.1972 150.949 68.6173 152.603 65.9147C153.761 63.9606 153.802 62.5885 152.769 62.5885C151.445 62.5885 148.882 65.1248 146.814 68.5341H146.773Z" fill="#F9F7F4"/>
  <path d="M161.617 72.0262L163.56 68.5752C164.305 67.12 164.553 66.0806 162.899 64.8332L162.072 64.2511C160.583 67.0784 158.846 69.9473 156.531 72.733C156.2 73.1488 155.952 72.7746 156.241 72.4835C158.226 69.9057 159.963 66.9537 161.493 63.7522C159.218 61.9228 162.278 58.3887 164.263 58.3887C163.808 59.9686 163.271 61.798 162.361 63.669L164.594 65.3737C165.587 66.1221 167.82 67.7852 165.752 71.5688L163.767 74.9782C162.03 78.0134 164.015 76.9324 165.959 75.394C167.654 74.0635 170.094 71.3609 171.541 68.7C171.789 68.2842 172.12 68.5336 171.955 68.9078C170.714 71.0699 169.432 72.733 168.026 74.1882C165.752 76.5997 163.808 78.0134 162.03 78.0134C160.583 78.0134 159.218 76.2255 161.617 72.0678V72.0262Z" fill="#F9F7F4"/>
</svg>
