                      <svg
                        xmlns="http://www.w3.org/2000/svg"
                        width="100"
                        height="100"
                        viewBox="0 0 100 100"
                        fill="none"
                      >
                        <g clip-path="url(#clip0_2345_752)">
                        <path d="M13.3129 28.1751L12.1088 26.3474L11.3921 28.4116L9.28125 28.9922L11.0229 30.3146L10.9226 32.4971L12.718 31.2499L14.7643 32.0204L14.1336 29.9275L15.499 28.2181L13.3129 28.1751Z" fill="#EEECE6"/>
                        <path d="M8.35841 46.5954L7.42306 45.1763L6.864 46.7818L5.22266 47.2333L6.5773 48.2618L6.50204 49.9605L7.89611 48.9893L9.49086 49.5914L8.99989 47.9608L10.0607 46.6313L8.35841 46.5954Z" fill="#EEECE6"/>
                        <path d="M41.3653 9.02759L42.763 8.0564L44.3541 8.65488L43.8632 7.02788L44.9275 5.69832L43.2253 5.66248L42.2863 4.23975L41.7273 5.84883L40.0859 6.30038L41.4442 7.32891L41.3653 9.02759Z" fill="#EEECE6"/>
                        <path d="M31.4472 15.5459L33.0886 14.4027L34.9593 15.1087L34.3823 13.195L35.6294 11.6325L33.6297 11.5931L32.5331 9.9231L31.8737 11.8117L29.9492 12.3421L31.5404 13.5498L31.4472 15.5459Z" fill="#EEECE6"/>
                        <path d="M17.2091 41.6964L18.6067 40.7252L20.1979 41.3237L19.7069 39.6967L20.7713 38.3671L19.069 38.3313L18.1301 36.9121L17.571 38.5176L15.9297 38.9692L17.2879 39.9977L17.2091 41.6964Z" fill="#EEECE6"/>
                        <path d="M27.4379 27.4724L28.8356 26.4976L30.4303 27.0997L29.9358 25.4691L31.0001 24.1396L29.2979 24.1037L28.3625 22.6846L27.8035 24.2901L26.1621 24.7416L27.5168 25.7702L27.4379 27.4724Z" fill="#EEECE6"/>
                        <path d="M23.9146 24.4624C16.3887 17.3237 24.0615 13.0232 24.0615 13.0232C13.4394 13.1128 15.4032 24.5377 23.9146 24.4624Z" fill="#EEECE6"/>
                        <path d="M53.9707 33.4343L53.9727 33.4324H53.9707V33.4343Z" fill="#EEECE6"/>
                        <path d="M49.2601 24.6167C49.2601 24.6167 49.235 24.588 49.2171 24.5844C49.1418 24.5772 49.0666 24.5916 48.9913 24.5988C48.9734 24.5808 48.9591 24.5665 48.934 24.545L48.9483 24.6023C48.9268 24.6059 48.9017 24.6023 48.8766 24.6059C48.7691 24.631 48.6401 24.6991 48.5935 24.8317C48.5864 24.8496 48.5935 24.8711 48.6043 24.889H48.6079C48.9877 25.3119 49.2386 25.8602 49.4357 26.4014C49.622 26.9138 49.7546 27.4442 49.855 27.9782C49.1848 27.7381 48.4538 27.5732 47.7263 27.7022C47.3464 27.7739 46.9844 27.9388 46.6726 28.1681C46.3752 28.4154 46.1172 28.7129 45.938 29.0533C45.8305 29.2146 45.7731 29.3973 45.6907 29.5729C45.6083 29.745 45.5617 29.9385 45.5223 30.1248C45.4434 30.4975 45.4112 30.881 45.4219 31.2645C45.4363 32.0278 45.6585 32.7875 46.0562 33.4434C46.4254 34.1028 46.8984 34.7048 47.522 35.1492C47.8338 35.3678 48.1886 35.5363 48.5756 35.5936C48.7655 35.633 48.9591 35.6294 49.1526 35.6115C49.3425 35.5864 49.5504 35.5578 49.7152 35.3857V35.3786L49.7224 35.375C49.7941 35.2711 49.9087 35.1743 50.0198 35.1635C50.1345 35.1743 50.2492 35.2675 50.3209 35.375V35.3822L50.328 35.3857C50.4893 35.5542 50.7007 35.5828 50.8907 35.6079C51.0842 35.6223 51.2741 35.6294 51.4641 35.5864C51.8368 35.5291 52.2059 35.3571 52.5105 35.1385C53.1269 34.6941 53.6 34.092 53.9655 33.4326C54.3633 32.7804 54.5855 32.0242 54.5998 31.2609C54.6106 30.881 54.5783 30.4975 54.4995 30.1248C54.4601 29.9421 54.4099 29.7414 54.3311 29.5765C54.2522 29.4045 54.1985 29.2253 54.0874 29.0641C53.9046 28.7236 53.6501 28.4297 53.3563 28.1861C53.1986 28.0821 53.0409 27.9603 52.8617 27.8958C52.6897 27.8098 52.4998 27.7668 52.3134 27.7238C51.7042 27.6162 51.0914 27.7238 50.5108 27.9029C50.4356 27.584 50.346 27.2686 50.2456 26.9533C51.6074 26.921 52.6252 26.5411 53.2738 25.81C54.1662 24.803 54.0049 23.5272 53.9978 23.4735C53.9798 23.3337 53.8616 23.2262 53.7218 23.219C53.4996 23.2047 53.2882 23.2011 53.0839 23.2083L55.2879 22.5381L54.6643 22.0149L51.6719 23.4305C51.3924 23.5236 51.1415 23.6419 50.9158 23.7888L50.4499 24.0074L50.7222 23.925C50.6004 24.0182 50.4893 24.1221 50.3854 24.2332C49.9768 24.6812 49.7833 25.1972 49.6937 25.6416C49.6794 25.6165 49.665 25.5879 49.6507 25.5628C49.5325 25.2438 49.3999 24.9285 49.2529 24.6238L49.2601 24.6167ZM48.9913 25.0395C48.9913 25.0395 48.9949 25.0395 48.9985 25.0395C48.9734 25.0539 48.9591 25.0539 48.9913 25.0395ZM52.1127 28.3186C52.7757 28.4942 53.41 28.7093 53.6537 29.2898C53.7254 29.4081 53.7899 29.6124 53.8544 29.7808L53.901 29.9134C53.901 29.9134 53.9118 29.96 53.9189 29.9922L53.9619 30.2359C54.0121 30.5692 54.0229 30.9097 53.9942 31.243C53.944 31.9095 53.7146 32.5331 53.3527 33.0527L53.3276 33.0993C53.2559 33.2104 53.152 33.3609 53.0552 33.4864C52.9513 33.6154 52.8474 33.7444 52.7363 33.8591C52.5213 34.1028 52.2919 34.3178 52.0518 34.4791C51.9335 34.5579 51.8117 34.6296 51.6934 34.6726C51.6253 34.7048 51.5859 34.712 51.5465 34.7227C51.525 34.7371 51.439 34.755 51.3386 34.7658C51.3243 34.7658 51.2741 34.7765 51.2526 34.7801H51.1702C51.1057 34.7801 51.0412 34.7801 50.9874 34.7693C50.9659 34.7693 50.948 34.7658 50.9337 34.7622L50.8907 34.712C50.8369 34.6547 50.776 34.5973 50.7007 34.54C50.5574 34.4325 50.346 34.325 50.0915 34.3035C50.0557 34.3035 50.0163 34.2999 49.9804 34.3035H49.9733C49.7188 34.325 49.5038 34.4289 49.3604 34.5364C49.2852 34.5901 49.2243 34.6475 49.1669 34.7048L49.1418 34.7335C49.1239 34.7371 49.0988 34.7407 49.0737 34.7407C49.0236 34.7443 48.9591 34.7478 48.8945 34.7407C48.83 34.7407 48.787 34.7299 48.7261 34.7156C48.5075 34.6762 48.2817 34.5686 48.056 34.4038C47.8302 34.2389 47.6152 34.0239 47.4181 33.7766C47.3177 33.6548 47.2174 33.5294 47.1242 33.4004C47.0346 33.2749 46.9378 33.1208 46.8769 33.0205L46.8447 32.9631C46.5221 32.4543 46.3286 31.8665 46.3035 31.2358C46.2892 30.924 46.3071 30.6015 46.3644 30.2933L46.411 30.0711C46.4218 30.0209 46.4469 29.96 46.4791 29.8811C46.5401 29.7414 46.5866 29.5801 46.6655 29.4583C46.945 28.9207 47.3464 28.5874 47.8768 28.4656C48.142 28.3939 48.4466 28.3867 48.762 28.419C48.9196 28.4333 49.0809 28.462 49.2422 28.4978C49.4106 28.5373 49.554 28.5767 49.7582 28.6412L49.8012 28.6555C49.8944 28.6842 49.9983 28.6878 50.0987 28.6663C50.8262 28.4799 51.4462 28.1395 52.1127 28.3151V28.3186ZM50.8262 24.6274C51.3351 24.0719 52.1486 23.7924 53.2488 23.7924C53.3061 23.7924 53.3634 23.7924 53.4208 23.7924C53.4172 24.1544 53.3348 24.8496 52.8259 25.4194C52.2883 26.0215 51.4139 26.3369 50.2205 26.3619C50.2169 25.9713 50.285 25.2116 50.8226 24.6274H50.8262Z" fill="#EEECE6"/>
                        <path d="M34.2212 48.126C34.257 48.1941 34.2929 48.2658 34.3323 48.3339C34.4541 47.9289 34.5796 47.5598 34.6943 47.2408C34.1746 46.4703 33.6836 45.7393 33.2393 45.0691C32.4078 43.8112 31.7198 42.754 31.2431 42.0158C30.7665 41.274 30.4941 40.8511 30.4941 40.8511C30.4941 40.8511 30.9529 41.7613 31.6373 43.1339C32.3254 44.5029 33.2608 46.3198 34.2212 48.1296V48.126Z" fill="#EEECE6"/>
                        <path d="M31.5423 49.9748C32.1587 51.1754 32.793 52.3688 33.3664 53.4439C33.3771 52.8167 33.4631 52.0964 33.5957 51.3582C32.4633 49.681 31.4204 48.1006 30.5388 46.7459C29.6752 45.4128 28.962 44.2911 28.4674 43.5062C27.9729 42.7214 27.6934 42.2734 27.6934 42.2734C27.6934 42.2734 28.1664 43.241 28.8724 44.6889C29.5856 46.1367 30.5496 48.0611 31.5423 49.9748Z" fill="#EEECE6"/>
                        <path d="M99.992 49.1041C99.4975 21.5382 76.6369 -0.48018 49.1033 0.00720537C35.7503 0.247314 23.2897 5.67306 14.0151 15.2846C4.74402 24.8961 -0.233764 37.543 0.0063449 50.896C0.124608 57.4828 1.50792 63.8511 4.03086 69.732C4.02011 69.7714 4.00577 69.8108 3.99144 69.8502L4.09178 69.8825C6.67922 75.8601 10.4529 81.3253 15.2801 85.9841C23.3471 93.768 33.5499 98.5164 44.5161 99.7026C44.5018 99.742 44.5161 99.7492 44.5806 99.7098C46.3617 99.8997 48.1607 100 49.9741 100C50.2787 100 50.5869 100 50.8951 99.9929C52.4504 99.9642 54.0165 99.8639 55.5504 99.6954C57.5859 99.4696 59.625 99.1184 61.6068 98.6454C64.291 98.0075 66.9394 97.1402 69.4803 96.0651C72.8812 94.628 76.1281 92.8004 79.1348 90.6394C92.4877 81.0493 100.282 65.5211 99.9884 49.1041H99.992ZM83.9298 49.6022L83.7757 19.947C84.3849 19.8108 84.9727 19.6137 85.5281 19.3629L98.6911 57.1101C98.1285 60.9698 97.1107 64.7255 95.6736 68.3057C93.1901 61.0666 89.1226 54.7234 83.9298 49.6022ZM55.708 98.8819C57.5716 97.0471 59.772 94.8216 61.933 92.5566C64.6028 89.7614 67.2153 86.9016 69.1291 84.7191C69.2401 84.5901 69.3512 84.4646 69.4588 84.3428C69.3763 84.7262 69.3154 85.0703 69.3047 85.2961C71.8025 83.196 75.1604 81.3002 76.7229 78.3616C77.5221 76.8564 77.9557 75.2545 77.9701 73.6848C78.0848 73.5271 78.1923 73.3802 78.289 73.2512C78.5614 72.8821 78.737 72.6276 78.737 72.6276L79.701 71.2766C80.2672 70.4559 81.027 69.37 81.7581 68.2591C82.1308 67.7108 82.4856 67.1481 82.8224 66.6249C82.9909 66.3633 83.1557 66.1088 83.3098 65.8687C83.4603 65.625 83.6001 65.3957 83.7327 65.1842C83.9943 64.7578 84.2129 64.4066 84.367 64.1593C84.5175 63.912 84.6 63.7651 84.6 63.7651C84.6 63.7651 84.8795 63.2168 85.2988 62.3925C85.5102 61.984 85.736 61.493 85.9869 60.9734C86.2413 60.4573 86.4957 59.8947 86.7466 59.3356C86.872 59.0561 86.9975 58.7766 87.1229 58.5006C87.2411 58.2211 87.3558 57.9487 87.4705 57.6835C87.6927 57.1531 87.9077 56.6622 88.069 56.2285L88.241 55.7842C88.8287 56.5833 89.395 57.4004 89.9325 58.239C89.7032 58.7766 89.2875 59.7227 88.8467 60.6293C88.6854 60.977 88.4811 61.3461 88.2589 61.7475C88.0367 62.1488 87.8002 62.586 87.5422 63.0519C87.2842 63.5142 87.0225 64.0195 86.7179 64.532C86.4097 65.0445 86.0872 65.582 85.7503 66.1447C85.5819 66.4242 85.4099 66.7109 85.2343 67.0048C85.0587 67.2951 84.8831 67.5961 84.686 67.8899C84.2989 68.4848 83.9011 69.0977 83.4926 69.7284C83.2883 70.0438 83.0805 70.3627 82.869 70.6888C82.654 71.0114 82.4282 71.3267 82.206 71.6528C81.7545 72.3051 81.2958 72.9681 80.8263 73.6418C80.3604 74.3156 79.8515 74.9821 79.357 75.6666C78.8517 76.3475 78.3607 77.0463 77.8267 77.7272C77.2999 78.4117 76.7695 79.1034 76.2356 79.7951C75.9739 80.1427 75.698 80.4867 75.4221 80.8272L74.5978 81.8557C70.2149 87.3424 65.4952 92.5674 61.9007 96.4271C61.3309 97.0291 60.7933 97.5989 60.2916 98.1365C58.7829 98.4555 57.249 98.7099 55.7152 98.8855L55.708 98.8819ZM59.7361 86.0379C58.9119 86.407 58.084 86.7618 57.2526 87.113C57.2634 87.0987 57.2777 87.0879 57.2885 87.0736C57.0878 87.1417 56.9014 87.199 56.7258 87.2492C56.905 86.898 57.5716 85.701 57.6791 85.1563C54.8694 85.5469 51.2822 86.1884 48.4474 86.321C45.6987 86.45 41.5703 85.7834 38.8036 85.2566C39.4308 85.1133 40.7102 84.6474 41.2943 84.3607C42.1401 83.945 42.2619 83.6655 43.0611 83.1673C40.0974 83.0742 38.4166 83.024 35.5962 81.9919C31.1273 80.3541 27.7264 76.4156 26.0922 72.0112C24.863 68.6999 24.7196 65.0445 25.6873 61.6471C26.1711 59.9484 26.9308 58.3322 27.8877 56.8485C28.3428 56.1461 28.9484 55.5369 29.4752 54.8882C29.7046 60.0129 31.586 64.8151 36.4886 66.7969C39.205 67.8935 40.0149 68.1946 42.33 68.6031C44.6451 69.0117 48.0676 68.8217 48.6589 68.8647C50.7482 69.0117 49.7268 68.3522 48.899 67.1696C51.7337 67.4348 54.1455 68.3343 56.8441 69.1801C57.0412 69.241 58.17 69.6424 58.4854 69.7642C62.0978 71.1762 60.4851 69.9398 59.8365 69.1801C59.8365 69.1801 59.8257 69.1801 59.8114 69.1837C59.4924 68.8002 59.2595 68.3057 58.7936 68.1301C61.4527 68.8683 62.9794 68.5278 65.7711 68.6103C62.897 68.5278 59.6465 67.9616 56.8942 67.123C57.0018 67.2843 57.3601 67.6391 57.6576 67.9186C57.3494 67.5925 58.8868 68.9328 58.9979 69.1801C59.0301 69.1944 59.0552 69.2052 59.0875 69.2195C59.0373 69.2231 59.0051 69.2267 59.0051 69.2303C58.6933 69.3055 57.6719 68.7608 57.4282 68.6748C56.3065 68.2842 55.1705 67.9329 54.0309 67.6068C53.2711 67.3882 52.5006 67.1804 51.7265 66.9797C51.6979 66.7718 51.6405 66.417 51.5402 65.9727C51.3861 65.2559 51.103 64.3098 50.8449 63.3852C50.6944 62.9086 50.6586 62.5395 50.7088 62.1596C50.7553 61.8012 50.9059 61.5289 51.0779 61.2099C51.2535 60.8981 51.4147 60.5362 51.4828 60.3032C51.5617 60.0631 51.5904 59.9269 51.5904 59.9269C51.5904 59.9269 51.5904 59.6402 51.5402 59.246C51.4864 58.8518 51.404 58.3716 51.2965 57.8663C51.189 57.3682 51.0313 56.8664 50.8485 56.526C50.6693 56.1819 50.4901 56.0099 50.4901 56.0099C50.4901 56.0099 50.5869 56.2429 50.6156 56.5941C50.6478 56.9489 50.6944 58.669 50.5869 59.1313C50.225 60.6723 49.5906 61.5862 49.6372 62.1417C49.6623 62.6721 49.8809 63.2562 50.1139 63.6647C50.5618 64.5392 51.017 65.3849 51.3072 66.0479C51.4864 66.4457 51.6083 66.7718 51.6799 66.9689C50.3396 66.6285 48.985 66.3346 47.616 66.1984C47.8203 66.6428 48.6732 67.8362 48.2217 68.1659C47.8525 68.4347 44.7777 68.2017 44.3727 68.1659C41.3123 67.9258 39.3735 67.4276 36.6212 65.9619C35.478 65.3527 34.4638 64.5607 33.5929 63.6289C33.5643 63.5429 33.532 63.4676 33.5069 63.3709C33.2776 62.6004 32.31 60.9232 32.4318 59.8803C32.5501 58.8446 32.4533 57.2391 35.202 55.9633C36.8541 55.1964 38.9936 55.8092 36.0406 54.7377C35.2164 52.9889 35.478 47.538 35.9116 47.6706C36.1015 47.9394 41.1689 51.2472 41.4986 52.8813C41.7817 53.0605 41.4986 52.8813 41.6348 53.0534C44.3441 56.483 42.7744 52.9566 42.7744 52.9566C44.0825 52.609 46.2434 53.0139 46.9279 53.7199C47.7056 54.5227 47.0139 49.9355 51.5115 48.0182C50.8306 49.8065 49.7483 51.2938 49.0853 52.0284C48.8631 52.2757 49.2609 53.1752 48.7126 53.9887C52.3143 53.3365 55.5109 52.6018 59.1807 52.4119C62.5709 52.2363 65.8213 52.996 68.5342 55.0961C70.7131 56.784 72.5766 59.1313 73.8954 61.5432C74.6157 62.8548 75.207 64.3062 75.2895 65.815C75.3396 66.7109 75.0601 67.2377 74.6623 68.0118C74.1068 69.0905 74.7411 69.4094 75.3145 70.3161C75.5331 70.6602 76.3144 72.7746 76.3682 73.115C76.938 77.1323 73.8452 79.7807 71.1754 82.3968C71.0284 81.1389 71.8383 79.279 71.3259 79.4761C70.1612 79.9312 67.4304 81.9668 66.3768 82.6334C64.2767 83.9593 61.9939 85.0165 59.7325 86.0343L59.7361 86.0379ZM49.0889 94.8897C47.5981 96.4665 46.2649 97.8426 45.154 98.9715C43.7313 98.8317 42.3264 98.6346 40.9324 98.3766C41.1725 98.1544 41.4233 97.9215 41.6814 97.6778C44.0717 95.4344 47.2218 92.3954 50.2859 89.2704C51.1316 88.4139 51.9666 87.5502 52.7837 86.6937C53.8087 86.5862 54.8085 86.4715 55.7475 86.3676C55.579 87.1668 54.7261 88.206 54.4932 89.0267C52.5687 91.1733 50.7374 93.1516 49.0889 94.8897ZM36.5172 97.3481C36.5172 97.3481 36.528 97.3373 36.5352 97.3302C36.9007 96.9897 37.2913 96.6242 37.707 96.2335C40.1296 93.9543 43.312 90.8687 46.4119 87.6936C46.5982 87.5036 46.7846 87.3101 46.9709 87.1202C48.4904 87.0772 50.0888 86.9553 51.6513 86.8048C49.3649 89.3564 47.1824 91.7037 45.2472 93.7214C43.5055 95.5455 41.9645 97.108 40.7389 98.3372C39.3125 98.0684 37.9041 97.7387 36.5172 97.3445V97.3481ZM25.7518 92.7896C26.3717 92.4026 27.4325 91.6034 28.0848 90.9798C30.2637 88.9049 32.869 86.0952 35.6285 83.2175C36.6893 83.5938 37.793 83.8697 38.9147 84.0668C38.8646 84.1206 38.8144 84.1779 38.7642 84.2317C38.6567 84.2532 38.5456 84.2711 38.4381 84.2926C37.3487 84.5076 36.2915 84.8481 35.2271 85.1563C35.908 85.4215 36.5853 85.6544 37.2555 85.8659C36.2986 86.898 35.3776 87.8799 34.5068 88.7938C32.2311 91.1805 30.2959 93.1372 28.9341 94.4954C27.8482 93.983 26.7803 93.4275 25.7303 92.8326L25.7518 92.7932V92.7896ZM33.8545 84.2639C33.7434 84.1242 33.4245 83.7156 32.9371 83.0921C32.6289 82.705 32.2634 82.2212 31.8441 81.6729C31.647 81.4149 31.4355 81.1389 31.2169 80.8487C32.3852 81.7518 33.6646 82.4542 35.0157 82.9881C34.6215 83.4218 34.2344 83.8482 33.851 84.2639H33.8545ZM30.8765 92.8326C32.8475 90.9727 35.3239 88.5823 37.854 86.0451C39.0438 86.3891 40.2336 86.6507 41.452 86.8299C40.2228 88.1774 39.0473 89.4424 37.9507 90.6035C35.8292 92.8577 33.9979 94.7212 32.654 96.0723C31.4319 95.6136 30.2278 95.1047 29.0452 94.5456C29.5828 94.0475 30.1992 93.4705 30.8801 92.8326H30.8765ZM34.3168 94.6746C36.5208 92.5817 39.3484 89.8223 42.1759 86.9302C43.0468 87.0377 43.9391 87.1022 44.8565 87.1309C45.2436 87.1417 45.6414 87.1452 46.0463 87.1417C44.3727 88.9873 42.7744 90.6967 41.3158 92.2234C39.3627 94.2768 37.6604 96.0006 36.3596 97.3051C35.1411 96.9575 33.9405 96.5597 32.7543 96.1153C33.0446 95.8644 33.5248 95.4272 34.3133 94.6746H34.3168ZM33.0052 62.9372C33.0554 62.9731 33.0948 63.0197 33.1199 63.0806C33.0805 63.034 33.0446 62.9838 33.0052 62.9372ZM57.9299 37.2133C58.1665 37.6326 58.5714 38.353 58.9764 39.0733C59.6179 40.1807 60.2594 41.2916 60.2594 41.2916L60.8005 42.0621L61.2664 42.7215L62.2842 44.1442L62.6676 44.4668C62.3092 45.2552 61.8971 46.1117 61.4384 47.0184C61.2592 46.8034 61.0585 46.5633 60.8363 46.2981C59.9368 45.2194 58.7578 43.768 57.5967 42.295C55.7439 39.9513 53.952 37.5538 53.3034 36.6794C54.8659 36.7833 56.4069 36.9625 57.9299 37.2133ZM63.628 37.2277C63.2876 36.984 62.8504 36.6758 62.5816 36.45C62.5924 36.4428 62.6031 36.4357 62.6174 36.4285C63.0582 36.1275 63.6101 35.7548 63.8538 35.253C64.0868 34.7764 64.1692 33.859 64.1871 33.1422C65.1762 33.4755 68.3335 33.1852 69.8279 32.0779C70.516 32.0456 71.1897 32.2857 71.8276 32.6692C71.8455 32.6871 71.8634 32.7014 71.8778 32.7194C72.4476 33.3322 72.9457 34.0346 73.4331 34.7477C73.494 34.8409 73.5585 34.9377 73.623 35.0309L71.8634 40.944C70.0536 40.0301 68.1794 39.2274 66.2549 38.5465C65.617 38.3207 64.9755 38.1093 64.3269 37.9086C64.334 37.8871 64.3376 37.8656 64.3376 37.8441C64.3376 37.7366 64.2086 37.6434 63.628 37.2313V37.2277ZM56.862 23.8425C56.8082 23.5307 56.6936 23.2655 56.5968 23.0075L56.5753 22.9537L56.5215 22.9071L55.536 22.0578L55.1203 21.6708L56.2922 21.4307C56.4033 21.4056 56.5108 21.3805 56.6326 21.3411C56.7007 21.3124 56.7401 21.3196 56.8727 21.2192C56.9623 21.1332 56.9588 21.126 57.0089 21.0759C57.1523 20.9146 57.2885 20.7963 57.4533 20.6709C58.0876 20.1799 58.919 20.033 59.7254 20.1441C59.9225 20.1728 60.1411 20.2122 60.3203 20.2659C60.3669 20.2803 60.4135 20.291 60.46 20.3054C59.686 20.1907 62.0118 21.8464 61.3345 23.7852C60.8077 25.2903 60.4385 31.1712 62.0835 32.7086C60.2199 32.2069 58.9226 31.1963 57.611 29.2682C57.5357 29.1607 57.4676 29.0568 57.4067 28.9565C57.4031 28.9493 57.3996 28.9457 57.396 28.9385C57.2956 28.7809 57.2239 28.6339 57.1451 28.4906C57.0519 28.3078 56.9623 28.125 56.8942 27.9315C56.8907 27.9208 56.8871 27.91 56.8835 27.9028C56.7115 27.4083 56.6577 26.8922 56.6792 26.3618C56.6971 25.8243 56.7867 25.2939 56.8548 24.7348C56.8835 24.4553 56.9122 24.1579 56.862 23.8425ZM77.7694 71.746C77.583 70.9254 77.2713 70.1298 76.8233 69.3772C76.8484 69.3413 76.8735 69.3055 76.8985 69.2697C77.196 68.836 77.5436 68.3272 77.9127 67.786C78.2747 67.2377 78.6617 66.65 79.0488 66.0658C79.8085 64.8832 80.5611 63.697 81.0987 62.7903C81.371 62.3388 81.5968 61.9625 81.7545 61.6973C81.9086 61.4285 81.9946 61.278 81.9946 61.278C81.9946 61.278 82.2813 60.6938 82.7113 59.8194C83.1199 58.9307 83.6789 57.7624 84.1771 56.5582C84.3061 56.2608 84.4315 55.9598 84.5569 55.6659C84.6716 55.3684 84.7899 55.0746 84.901 54.7915C85.1196 54.2217 85.3382 53.702 85.4923 53.2397C85.5819 52.9889 85.65 52.7918 85.7037 52.6377C86.3094 53.3257 86.8971 54.0353 87.4598 54.7628C87.3522 55.0602 87.191 55.4939 87.0835 55.7411C86.9114 56.1497 86.6248 56.7303 86.2736 57.4757C85.5532 58.9593 84.4745 61.063 83.041 63.5106C81.6111 65.9655 79.8264 68.7644 77.8052 71.6959C77.7909 71.7138 77.7801 71.7317 77.7658 71.7532L77.7694 71.746ZM65.0436 38.9622C64.9218 39.0052 64.8393 39.0339 64.8393 39.0339C64.8393 39.0339 64.7533 39.2883 64.5921 39.7614C64.5419 39.9262 64.4738 40.1161 64.3914 40.3312L62.707 38.2598C63.4954 38.4748 64.2731 38.7078 65.0472 38.9622H65.0436ZM64.4881 43.897C64.6136 43.5673 64.7426 43.2376 64.868 42.915C64.9791 42.5853 65.0902 42.2628 65.1977 41.9474C65.4056 41.3167 65.6242 40.7433 65.7604 40.2308C65.8643 39.8725 65.9575 39.5607 66.0327 39.3026C66.8928 39.6073 67.7386 39.937 68.5772 40.2882C68.4911 40.3168 68.4374 40.3348 68.4374 40.3348C68.4374 40.3348 68.2761 41.0838 68.1149 41.564C67.9643 42.0478 67.6741 42.7323 67.3336 43.6139C66.6169 45.3663 65.5167 47.8498 63.947 50.7204C63.8001 50.9927 63.6424 51.2723 63.4883 51.5554C62.7895 51.4264 62.0727 51.3475 61.3381 51.3224C61.227 51.3188 61.1194 51.3224 61.0084 51.3188C61.1194 51.1289 61.227 50.9426 61.3273 50.767C61.614 50.2688 61.8505 49.8567 62.019 49.5664C62.1802 49.2725 62.2698 49.1041 62.2698 49.1041C62.2698 49.1041 62.5673 48.4626 63.0152 47.4986C63.2303 47.0148 63.4704 46.4414 63.732 45.8322C64.0008 45.2265 64.2516 44.5635 64.5025 43.9041L64.4881 43.897ZM65.7424 50.9533C65.7424 50.9533 66.0471 50.3082 66.4986 49.3406C66.9179 48.3551 67.5056 47.0614 68.0038 45.7247C68.1328 45.3914 68.2618 45.0617 68.3872 44.7356C68.5019 44.4023 68.613 44.0762 68.7205 43.7608C68.9319 43.1301 69.1506 42.5495 69.2867 42.0334C69.4444 41.4995 69.5698 41.0587 69.6594 40.7612C70.3977 41.0945 71.1252 41.4421 71.8419 41.8112C71.781 42.0729 71.6305 42.7108 71.5015 43.0835C71.351 43.5673 71.0643 44.2553 70.7166 45.1405C69.9999 46.8965 68.9033 49.3944 67.3264 52.2757C67.244 52.4262 67.1616 52.5803 67.0756 52.7308C66.4592 52.4334 65.8213 52.1789 65.1655 51.9711C65.5274 51.3439 65.7389 50.9461 65.7389 50.9461L65.7424 50.9533ZM68.8818 52.9745C69.043 52.6771 69.1362 52.5086 69.1362 52.5086C69.1362 52.5086 69.4372 51.86 69.8924 50.8888C70.3153 49.8997 70.8994 48.5988 71.3975 47.2585C71.5266 46.9252 71.6592 46.5955 71.781 46.2658C71.8957 45.9325 72.0068 45.6064 72.1143 45.291C72.3293 44.6567 72.5443 44.0726 72.6841 43.5565C72.8167 43.1086 72.9278 42.7215 73.0138 42.4348C73.7413 42.8362 74.458 43.2555 75.164 43.6927C75.0637 44.0081 74.7877 44.8753 74.6551 45.2588C74.5082 45.739 74.2215 46.4199 73.8811 47.2979C73.1715 49.0396 72.0856 51.5124 70.5267 54.365C70.4479 54.5119 70.3654 54.6625 70.283 54.8094C69.7311 54.3507 69.1577 53.9314 68.5628 53.5551C68.6918 53.3329 68.8029 53.1394 68.8889 52.9781L68.8818 52.9745ZM72.0605 55.0567C72.2218 54.7628 72.3114 54.5944 72.3114 54.5944C72.3114 54.5944 72.6124 53.9529 73.0604 52.9924C73.4797 52.0141 74.0567 50.7275 74.5512 49.398C74.6766 49.0683 74.8092 48.7422 74.9275 48.416C75.0386 48.0863 75.1533 47.7638 75.2608 47.4484C75.4722 46.8213 75.6873 46.2443 75.8234 45.7318C75.9955 45.1441 76.1352 44.6711 76.2212 44.3736C77.0885 44.947 77.9378 45.5455 78.7657 46.1726C78.6868 46.4056 78.4539 47.108 78.3141 47.4914C78.16 47.9645 77.8733 48.6346 77.5293 49.4947C77.4433 49.7098 77.3501 49.9355 77.2533 50.1756C77.1458 50.4086 77.0347 50.6559 76.9201 50.9103C76.6835 51.4192 76.447 51.9782 76.1639 52.5624C75.8772 53.143 75.569 53.7629 75.2465 54.4188C74.9024 55.0638 74.5441 55.7411 74.1678 56.4471C73.899 56.9345 73.6159 57.4398 73.322 57.9487C72.7522 57.2535 72.1501 56.5941 71.5409 55.9741C71.7559 55.6086 71.9387 55.2968 72.0641 55.0602L72.0605 55.0567ZM74.992 58.3178C75.2823 57.8305 75.5224 57.4255 75.6801 57.1352C75.8413 56.8485 75.9309 56.6801 75.9309 56.6801C75.9309 56.6801 76.0062 56.5224 76.1388 56.2465C76.2678 55.9705 76.4613 55.5799 76.6799 55.1032C76.8914 54.623 77.1351 54.064 77.4003 53.4655C77.4648 53.315 77.5329 53.1645 77.601 53.0104C77.6655 52.8527 77.7264 52.695 77.7909 52.5373C77.9199 52.2184 78.0453 51.8958 78.1779 51.5697C78.3069 51.2436 78.4395 50.9246 78.5578 50.6021C78.6725 50.2796 78.7836 49.9606 78.8947 49.6524C79.1097 49.036 79.3247 48.4698 79.4681 47.9645C79.5899 47.5667 79.6938 47.2262 79.7763 46.9575C80.4858 47.5273 81.1811 48.115 81.8548 48.7278C81.7545 49.0217 81.5574 49.5915 81.4319 49.9176C81.2707 50.3727 80.9768 51.0214 80.6256 51.8564C79.8981 53.5121 78.7907 55.863 77.2569 58.5866C76.7588 59.479 76.2105 60.4179 75.6227 61.3819C75.2572 60.6795 74.8415 60.0022 74.3828 59.3464C74.6014 58.9808 74.8057 58.6296 74.992 58.3178ZM84.4423 52.7487C84.2774 53.1824 83.9871 53.8024 83.6359 54.5979C82.9156 56.1819 81.8297 58.4218 80.3497 61.0307C79.3892 62.7294 78.2639 64.5893 77.0096 66.5317C77.0491 65.711 76.9057 64.8689 76.6979 64.102C76.6083 63.7651 76.4972 63.4282 76.3789 63.0985C77.0025 62.1202 77.5938 61.1741 78.0418 60.4143C78.3249 59.9413 78.5614 59.5506 78.7227 59.2711C78.8803 58.9916 78.9699 58.8339 78.9699 58.8339C78.9699 58.8339 79.2674 58.2247 79.7118 57.3072C80.1311 56.3755 80.708 55.1498 81.2133 53.892C81.3424 53.5802 81.4714 53.2648 81.6004 52.9566C81.7186 52.6448 81.8333 52.3366 81.9444 52.0392C82.163 51.4443 82.3852 50.896 82.5357 50.4086C82.6361 50.1076 82.7257 49.8388 82.8009 49.6094C83.4998 50.276 84.1771 50.9605 84.8365 51.67C84.729 51.9747 84.5534 52.4656 84.4387 52.7487H84.4423ZM71.8813 40.9476L74.0029 35.5828C74.3147 36.0307 74.6408 36.4751 74.9992 36.8872C75.1497 37.0592 75.2859 37.2348 75.5117 37.4176C75.6227 37.5036 75.7733 37.6219 76.0313 37.6541C76.318 37.6685 76.4936 37.5825 76.6764 37.4212C76.8627 37.2348 76.9129 36.9947 76.9236 36.8442C76.9344 36.6829 76.9201 36.5539 76.9057 36.4285C76.8735 36.1812 76.8233 35.9626 76.7695 35.7404C76.7444 35.6329 76.7265 35.5362 76.6656 35.3749C76.6118 35.2315 76.5581 35.142 76.5043 35.0273C76.3932 34.823 76.2786 34.6295 76.1603 34.436C75.9238 34.0597 75.6765 33.687 75.4256 33.3286C75.3145 33.1673 75.1999 33.0132 75.0852 32.8555L80.1669 20.0079C80.7009 20.1047 81.2492 20.162 81.8118 20.162C81.8799 20.162 81.9444 20.1584 82.0089 20.1549L83.9119 49.5807C80.3747 46.0974 76.3144 43.1838 71.8813 40.944V40.9476ZM73.856 31.2034C72.7773 29.8166 71.6341 28.4834 70.4479 27.1897C69.9211 26.6163 69.3835 26.0572 68.8316 25.5053L76.7444 18.6031C77.2211 18.9292 77.7336 19.2088 78.2711 19.4381L74.5082 32.0635C74.2932 31.7768 74.0782 31.4866 73.8596 31.2034H73.856ZM68.0038 31.6908C67.8102 31.741 67.6203 31.7912 67.4268 31.8342C66.0076 31.4364 64.9038 30.2645 63.99 28.5443L68.0038 31.6908ZM75.2142 17.295L67.8927 24.5987C67.4985 24.2224 67.0971 23.8532 66.685 23.4949C65.3554 22.3409 63.9613 21.2371 62.3666 20.4165C62.3272 20.395 62.2877 20.377 62.2447 20.3591L74.0782 15.8078C74.4043 16.3454 74.7842 16.8435 75.2106 17.2986L75.2142 17.295ZM65.4378 31.5905C64.1728 31.5511 63.2518 30.6874 62.5135 29.3005L65.4378 31.5905ZM62.406 38.1774L63.3915 40.0803L64.0438 41.2092C63.9721 41.3955 63.8932 41.5891 63.8144 41.7969C63.5994 42.3237 63.3521 42.915 63.0654 43.5673C62.4562 42.8326 61.6319 41.8292 60.822 40.815C59.6645 39.3707 58.532 37.905 58.0124 37.2277C59.4996 37.475 60.9618 37.7939 62.4024 38.1774H62.406ZM53.2281 36.6722C53.5363 37.2456 54.1921 38.4641 54.8659 39.6754C55.7905 41.3418 56.7437 42.9975 56.7437 42.9975L57.5429 44.1514L58.2346 45.1369C58.2346 45.1369 58.6108 45.6709 58.9871 46.2013C59.367 46.7281 59.7469 47.2585 59.7469 47.2585C59.7469 47.2585 60.2235 47.6563 60.6966 48.0541C60.7432 48.0935 60.7897 48.1293 60.8363 48.1688C60.7145 48.3981 60.5926 48.6311 60.4636 48.8676C60.0981 49.5449 59.7075 50.2473 59.2953 50.9676C58.9836 50.5878 58.5929 50.104 58.1414 49.5413C57.0018 48.1222 55.5109 46.2049 54.0524 44.2553C52.5938 42.3094 51.1675 40.3348 50.1174 38.8403C49.3756 37.7867 48.813 36.9804 48.5478 36.5934C49.0567 36.579 49.5691 36.5683 50.0816 36.5683C51.1388 36.5683 52.1852 36.6041 53.2281 36.6722ZM0.794762 50.8816C0.558237 37.7401 5.45718 25.2903 14.5849 15.8329C23.7126 6.37189 35.9761 1.03215 49.1176 0.799206C49.4186 0.792039 49.7161 0.792039 50.0135 0.792039C57.6361 0.792039 64.8752 2.54448 71.3366 5.66589C66.9107 4.75921 50.0995 1.31526 50.0995 1.31526L73.2969 8.1279C73.0998 8.69055 72.6053 9.71191 72.5192 10.3176L50.2966 11.3031L72.8346 12.0807C72.9027 12.7401 73.0425 13.3745 73.2467 13.9837L60.7324 19.7535C60.6536 19.732 60.5711 19.7105 60.4923 19.6854C60.2522 19.6209 60.0372 19.5886 59.8042 19.5564C58.894 19.4417 57.8726 19.628 57.12 20.2301C56.9373 20.3699 56.7473 20.5455 56.604 20.7139L56.5251 20.8035C56.5251 20.8035 56.4821 20.825 56.4642 20.8286C56.3782 20.8573 56.2743 20.8823 56.1739 20.9074L54.8945 21.187L54.7225 21.2336C54.6903 21.2443 54.658 21.2551 54.615 21.273L54.5792 21.2909C54.5792 21.2909 54.5075 21.3375 54.4824 21.3697C54.4286 21.4522 54.4967 21.3196 54.4215 21.4808C54.3964 21.5453 54.4322 21.6744 54.4358 21.6672C54.5684 21.8894 54.6222 21.8965 54.7118 22.0005C54.8766 22.1582 55.0415 22.3015 55.2063 22.4484L56.1668 23.2512C56.2599 23.4877 56.3567 23.7135 56.3925 23.9285C56.4355 24.1614 56.4176 24.4195 56.3925 24.6883C56.3352 25.2222 56.2492 25.7849 56.2348 26.3511C56.2205 26.8134 56.285 27.29 56.4176 27.7487C56.4355 27.8168 56.4463 27.8885 56.4714 27.9566C56.4821 27.9889 56.4857 28.0247 56.4965 28.0569C56.5323 28.1537 56.586 28.2433 56.6291 28.3365C56.69 28.4798 56.7581 28.6303 56.8405 28.7809C56.8727 28.8346 56.905 28.8884 56.9373 28.9457C57.0233 29.0962 57.0985 29.2396 57.206 29.4008C57.2311 29.4367 57.2526 29.4725 57.2777 29.5084C58.7757 31.7052 60.3274 32.8018 62.6139 33.2605C62.6497 33.3501 62.6963 33.454 62.7536 33.5795C62.793 33.669 62.8468 33.7837 62.8791 33.8697C62.8791 33.8805 62.8791 33.8912 62.8791 33.902C62.8791 33.9486 62.8862 33.9952 62.897 34.0346C62.9221 34.1242 62.9364 34.203 62.9364 34.2819C62.9364 34.6402 62.6604 34.9018 62.0727 35.3713C61.9688 35.4537 61.8684 35.5326 61.7645 35.6186C61.1266 36.1526 60.8292 36.2314 60.7073 36.2314C60.7001 36.2314 60.693 36.2314 60.6858 36.2314C60.392 36.2314 60.0909 36.3174 59.7756 36.4106C59.4889 36.493 59.195 36.5754 58.9083 36.5898C58.1342 36.4464 57.3565 36.3246 56.5717 36.2207L60.6536 32.7158L60.0658 32.4255L56.2922 36.1848C54.2566 35.9232 52.1852 35.7906 50.0888 35.7906C48.1751 35.7906 46.2864 35.9017 44.4265 36.1167C44.3512 36.0092 44.2617 35.9411 44.1756 35.9017L44.2007 35.8694C44.1685 35.8694 44.1434 35.8802 44.1147 35.8802C44.0215 35.8479 43.9284 35.83 43.8531 35.8085C43.656 35.7834 43.4697 35.7763 43.2905 35.7834C42.9321 35.7942 42.5881 35.8336 42.2476 35.8766C41.5739 35.9555 40.8894 36.0701 40.2622 36.0594C39.9504 36.0701 39.8143 35.9734 39.5311 35.7118C39.2803 35.4932 39.0402 35.2674 38.8467 35.0237C38.7499 34.9018 38.6675 34.7764 38.6173 34.651C38.5886 34.5901 38.5743 34.5184 38.5635 34.479C38.5564 34.4575 38.5564 34.4001 38.5528 34.3643L38.56 34.2711C38.585 34.0023 38.689 33.7156 38.8287 33.4791C40.2622 32.8842 41.6348 32.1639 42.8532 31.1819C43.4768 30.6731 44.0287 30.0782 44.4265 29.3793C44.8458 28.7056 45.1325 27.8885 45.111 27.075C45.0967 26.2723 44.9927 25.491 44.8135 24.7241C44.7275 24.3442 44.6344 23.9679 44.6236 23.6024C44.6057 23.3515 44.6666 23.1114 44.792 22.9358C44.9282 22.8821 45.068 22.8319 45.2149 22.7961C45.6629 22.6133 46.4298 22.2872 47.1824 21.9646H47.1931L47.1967 21.9575C48.2288 21.5131 49.2394 21.0723 49.3899 21.0078L49.4258 20.9934L49.6157 20.911L49.5942 20.696C49.3899 18.5959 47.8991 17.6857 46.6197 17.1302C45.0106 16.4314 43.079 16.4708 41.5739 17.2341C40.574 17.743 39.2839 18.8002 38.8252 20.9003C36.8147 25.0789 30.9159 29.8882 27.3931 32.7588C25.207 34.5399 24.4939 35.1491 24.4007 35.5254C24.3219 35.8444 24.2789 36.106 24.2574 36.3389C24.1283 36.5611 24.0423 36.794 24.0531 36.8155C24.0674 36.898 24.071 36.9732 24.1355 37.1094C24.1713 37.2313 24.4258 37.4678 24.6874 37.4355C24.8021 37.4284 24.8809 37.3961 24.9454 37.3639C24.9813 37.3424 25.0135 37.328 25.0673 37.2814L25.0924 37.2599L25.1963 37.1668L25.612 36.7976L26.4362 36.0666C26.9881 35.5863 27.5508 35.124 28.1313 34.6904C29.253 33.8769 30.5289 33.024 31.7688 32.9666C32.2562 33.239 32.6791 33.3358 32.8726 33.5472C33.0446 33.6762 32.9514 34.0561 32.7113 34.4575L32.1594 35.3785L33.1772 35.0309C33.8008 34.8194 34.4709 34.6367 35.1268 34.4431C35.65 34.2783 36.1266 34.1672 36.6678 33.9629C36.7143 34.2819 36.786 34.5936 36.9186 34.8983C37.105 35.357 37.5171 35.8014 37.897 36.0451C38.0762 36.1776 38.2553 36.3102 38.4166 36.4464C38.4632 36.4858 38.5026 36.5253 38.542 36.5611C38.456 36.5898 38.3772 36.6113 38.2159 36.6937C38.1944 36.7045 38.1442 36.7403 38.0977 36.794C38.0296 36.8693 37.983 37.0306 38.0439 37.1668C38.069 37.2169 38.0905 37.2492 38.112 37.2743C22.4834 41.2271 9.71821 52.7989 4.41431 68.5924C2.15299 63.0412 0.916609 57.0635 0.809097 50.8924L0.794762 50.8816ZM37.8325 34.4826C37.8611 34.7549 37.9328 34.9018 38.0152 35.0703C37.8683 34.9198 37.7608 34.7585 37.6604 34.5435C37.5099 34.2138 37.4347 33.7873 37.4347 33.4433L37.4418 32.6692L36.7179 33.0204C36.4241 33.1637 35.8543 33.3286 35.3991 33.4612L33.9405 33.8769C33.8796 33.8948 33.8151 33.9199 33.7542 33.9378C33.7972 33.626 33.704 33.2175 33.4532 32.9774C33.231 32.7731 33.0052 32.6584 32.7938 32.5653C33.4209 32.3717 34.0051 32.1567 34.5498 31.9238C35.46 31.5833 36.3094 31.1174 37.0978 30.5655C39.2265 29.1571 40.5453 27.4979 41.5989 26.0931C41.9394 25.6559 42.2476 25.2473 42.5307 24.8639C43.0217 24.2367 43.5019 23.7063 44.0395 23.3264C44.0072 23.606 44.0359 23.8748 44.0645 24.1005C44.1326 24.5485 44.2401 24.9535 44.3082 25.3477C44.4193 26.1397 44.5304 26.9782 44.3942 27.6842C44.3942 27.6842 44.3441 28.125 44 28.7522C43.8173 29.0855 43.6202 29.4008 43.3084 29.7879C43.0324 30.0925 42.6812 30.4401 42.2906 30.7376C41.5129 31.3432 40.6349 31.8414 39.9612 32.1746C39.2875 32.5151 38.8216 32.7014 38.8216 32.7014L38.4775 32.8412L38.3234 32.9021L38.2518 33.0168C38.0511 33.3322 37.94 33.6153 37.8647 33.9629C37.8468 34.0453 37.836 34.1349 37.8289 34.2209L37.8217 34.3822L37.8289 34.4897L37.8325 34.4826ZM45.0106 19.6245C45.0752 20.3735 45.1217 21.2121 45.1253 22.0327L45.0178 22.0721L44.9426 22.1008L44.8386 22.151C44.7885 22.1761 44.7526 22.1904 44.6917 22.2262C44.6236 22.2692 44.5806 22.3266 44.5197 22.3768C44.1147 22.5416 43.7492 22.7745 43.4051 23.0612C42.3551 23.2548 40.5525 23.2799 39.6924 21.4737C39.5061 21.2371 39.4702 20.9469 39.5132 20.6387C39.5311 20.5742 39.5526 20.5132 39.5742 20.4523C39.6028 20.3735 39.6422 20.2946 39.6745 20.2158C40.1977 20.0043 42.9213 18.9758 45.0106 19.628V19.6245ZM40.101 19.4274C40.3805 19.0152 40.7245 18.6497 41.1438 18.3737C41.6348 18.0261 42.1974 17.7932 42.7852 17.6427C42.8102 18.0261 42.8461 18.5135 42.8783 18.8396C41.7781 18.9221 40.7604 19.2052 40.101 19.4274ZM44.1398 18.6891C44.0144 18.725 43.8889 18.7644 43.7635 18.7823C43.6668 18.793 43.5664 18.7895 43.4661 18.7895C43.4087 18.4956 43.3155 18.0261 43.208 17.4241C43.4338 17.8004 43.785 18.3379 44.1398 18.6927V18.6891ZM43.6739 17.485C43.8782 17.4635 44.0825 17.442 44.2867 17.4384C44.4444 17.4384 44.6021 17.4527 44.7598 17.4635C44.7992 17.7466 44.8601 18.1946 44.9246 18.7715C44.6344 18.3953 44.1721 17.8505 43.6739 17.485ZM46.3366 17.7502L47.3687 20.0366L46.7702 21.4199L45.7131 21.8141C45.6951 20.0975 45.4837 18.3451 45.3726 17.5244C45.7023 17.5746 46.0248 17.6498 46.3402 17.7502H46.3366ZM47.1286 18.0655C47.2469 18.1229 47.3651 18.1838 47.4762 18.2519C47.6698 18.3558 47.8239 18.4848 47.9672 18.6246C48.0066 18.6604 48.0425 18.6927 48.0747 18.7285C48.5119 19.2088 48.727 19.8574 48.8345 20.5777C48.5585 20.6996 48.1428 20.8788 47.659 21.0866L47.5336 21.1332L48.0102 20.033L47.1215 18.0655H47.1286ZM4.86945 69.6926C9.73972 54.2432 21.8168 42.7609 36.7717 38.4426C36.8935 38.6791 37.2591 39.3922 37.7608 40.3634C38.3844 41.5711 39.2265 43.1695 40.0902 44.7642C40.9503 46.359 41.8319 47.943 42.4985 49.1292C42.8353 49.7205 43.1149 50.2151 43.312 50.5591C43.5091 50.9031 43.6237 51.1002 43.6237 51.1002L43.8925 51.5088C44.3656 51.326 44.8781 51.1074 45.3905 50.8494C45.2042 50.5949 45.0142 50.3369 44.8279 50.0825C42.7278 47.2119 40.6923 44.2876 39.1979 42.0693C38.4489 40.9619 37.8325 40.0337 37.4024 39.3815C37.0906 38.9084 36.8792 38.5859 36.7824 38.4426C37.9149 38.1164 39.0688 37.8297 40.2336 37.5896C40.3912 37.8907 40.6923 38.4641 41.0829 39.2059C41.667 40.3133 42.459 41.7862 43.2618 43.2483C44.0645 44.7141 44.8888 46.169 45.5124 47.2585C46.1431 48.3444 46.5624 49.0683 46.5624 49.0683C46.5624 49.0683 46.7846 49.4016 47.0498 49.7994C47.125 49.7384 47.2039 49.6739 47.2756 49.6094C47.5873 49.3299 47.892 49.0719 48.193 48.8282C48.0174 48.5916 47.8418 48.3551 47.6662 48.1186C45.7131 45.481 43.8173 42.7932 42.4196 40.7576C41.3517 39.2059 40.574 38.0412 40.2622 37.5753C41.6384 37.2886 43.0396 37.0628 44.4552 36.8944C44.7275 37.4069 45.9245 39.661 47.1716 41.8937C47.8776 43.1659 48.6015 44.4274 49.1463 45.3735C49.6981 46.3196 50.0637 46.9467 50.0637 46.9467C50.0637 46.9467 50.1963 47.1474 50.3755 47.4126C50.7984 47.2119 51.2212 47.0578 51.6477 46.9575C51.4398 46.6815 51.232 46.402 51.0241 46.1225C49.3183 43.8289 47.6554 41.4995 46.4262 39.7363C45.412 38.2813 44.6881 37.2169 44.4695 36.8944C45.8026 36.7403 47.1501 36.6399 48.5119 36.5969C48.8524 37.2313 49.7913 38.9586 50.7625 40.6752C51.9774 42.8326 53.2389 44.9649 53.2389 44.9649L54.2638 46.4737L55.1526 47.7602L56.1273 49.1471C56.6219 49.8352 57.1129 50.5233 57.1129 50.5233C57.1129 50.5233 57.5967 50.982 58.1235 51.4765C57.2311 51.584 56.3567 51.7417 55.4858 51.9281C54.6473 50.8852 53.6832 49.6488 52.6762 48.3336C52.4899 48.9608 52.2856 49.4696 52.0598 49.8961L52.3035 50.2473C52.3035 50.2473 52.8769 51.0608 53.4503 51.8743C53.5578 52.0248 53.6653 52.1754 53.7728 52.3223C52.9701 52.5194 52.1602 52.7308 51.3252 52.9387C51.1567 52.7201 50.9847 52.5015 50.8091 52.2757C51.9881 50.233 52.0634 48.4124 52.5257 46.8213C48.2718 48.5594 47.9027 50.0359 45.4837 51.3296C43.7886 52.2327 44 51.5267 42.3229 51.989C40.0974 48.9285 37.9543 45.8143 36.3775 43.449C35.5819 42.2592 34.9261 41.2629 34.4709 40.5641C34.0158 39.8653 33.7578 39.4639 33.7578 39.4639C33.7578 39.4639 34.195 40.3276 34.8508 41.6213C35.5102 42.915 36.4061 44.6316 37.32 46.3411C37.6855 47.0291 38.0547 47.7136 38.413 48.3694C39.8716 49.4302 41.3194 50.6129 42.3229 51.9854C42.2655 51.9998 42.2082 52.0177 42.1473 52.0356C42.0612 51.9424 41.9573 51.8385 41.8606 51.7346C41.7423 51.5518 37.7751 48.1974 35.5138 46.8141C34.3312 48.373 33.9728 51.6127 33.9728 51.6127C33.9728 51.6127 34.0803 54.0891 34.0015 54.6625C32.4712 56.9166 31.5144 57.8233 31.3782 58.7121C31.3065 59.1779 31.2599 59.5901 31.2348 59.9556C30.7188 58.7085 30.3819 57.3861 30.235 56.0386C30.2242 55.9275 30.2242 55.562 30.235 55.114C30.6543 55.906 31.0521 56.6478 31.4033 57.2965C31.6685 56.7804 31.9838 56.293 32.3458 55.8307C31.6398 54.7986 30.9517 53.7844 30.2995 52.8061C30.2995 52.7774 30.2995 52.7595 30.2995 52.7595C30.2995 52.7595 30.2923 52.7667 30.2816 52.781C29.2925 51.3009 28.3822 49.9104 27.5974 48.6956C26.7122 47.3194 25.9847 46.169 25.4794 45.3591C24.9741 44.5492 24.6874 44.0869 24.6874 44.0869C24.6874 44.0869 24.8092 44.3342 25.0171 44.7714C25.2285 45.205 25.5296 45.8286 25.8915 46.574C26.6226 48.0648 27.6045 50.0466 28.6223 52.0177C28.909 52.5767 29.1957 53.1286 29.4788 53.6733C29.0954 54.0998 28.6976 54.5442 28.5901 54.6696C28.2783 55.0352 27.9844 55.4114 27.7013 55.7949C26.5438 54.0604 25.4758 52.4298 24.5763 51.0214C23.6696 49.6058 22.9242 48.416 22.4046 47.5846C21.8885 46.7496 21.5911 46.273 21.5911 46.273C21.5911 46.273 21.7129 46.531 21.9279 46.979C22.143 47.4269 22.4512 48.0684 22.8239 48.8389C23.5729 50.3763 24.5799 52.419 25.6192 54.4474C26.0528 55.3004 26.4936 56.1461 26.9165 56.956C26.6907 57.3216 26.4721 57.6907 26.2714 58.0706C26.0707 58.4469 25.8844 58.8303 25.7123 59.2209C24.2824 57.0922 22.9636 55.0746 21.8813 53.3795C20.9639 51.9424 20.2113 50.7383 19.6845 49.8925C19.1613 49.0468 18.8639 48.563 18.8639 48.563C18.8639 48.563 18.9893 48.821 19.2043 49.2797C19.4229 49.7348 19.7347 50.3835 20.1074 51.1647C20.8636 52.7237 21.8813 54.795 22.9314 56.8521C23.6517 58.2748 24.3899 59.6832 25.0494 60.9268C24.6623 62.0915 24.3971 63.292 24.2574 64.5105C23.5263 63.378 22.8095 62.2563 22.1286 61.1777C20.989 59.3607 19.9426 57.6549 19.0574 56.1819C18.1722 54.7126 17.4483 53.4762 16.943 52.6126C16.4413 51.7453 16.1546 51.2508 16.1546 51.2508C16.1546 51.2508 18.2295 55.4043 20.4443 59.4897C21.5516 61.5324 22.6769 63.5644 23.5442 65.0803C23.7664 65.4745 23.9707 65.8329 24.1534 66.1483C24.1534 66.2128 24.1498 66.2737 24.1498 66.3382C24.1355 68.4813 24.5333 70.5813 25.268 72.5595C24.6014 71.5883 23.9276 70.5956 23.2647 69.5922C21.9996 67.7 20.7704 65.7827 19.6272 63.9837C18.4876 62.1775 17.4411 60.4824 16.5595 59.0203C15.6743 57.5581 14.9504 56.3325 14.4451 55.4724C13.9434 54.6123 13.6567 54.1213 13.6567 54.1213C13.6567 54.1213 15.7317 58.2497 17.9464 62.3101C20.1468 66.3776 22.4906 70.3699 22.4906 70.3699C22.4906 70.3699 22.9457 71.0902 23.4044 71.8105C23.6338 72.1689 23.8631 72.5309 24.0352 72.7996C24.2108 73.0684 24.3254 73.2476 24.3254 73.2476C24.3254 73.2476 24.7232 73.8604 25.1246 74.4732C25.3217 74.7814 25.526 75.086 25.6765 75.3118C25.8306 75.5412 25.9309 75.6917 25.9309 75.6917C25.9309 75.6917 26.8018 77.0141 27.7013 78.3186C28.1457 78.9744 28.5972 79.6266 28.9413 80.1104C29.2817 80.5978 29.5075 80.9203 29.5075 80.9203C29.5075 80.9203 29.5684 80.9884 29.6723 81.1103C29.7763 81.2321 29.9268 81.4077 30.1096 81.612C30.4751 82.0241 30.9589 82.576 31.4463 83.1279C32.1308 83.8805 32.8117 84.6367 33.1665 85.0273C32.5716 85.6688 31.9982 86.2852 31.4391 86.8765C31.328 86.9947 31.2133 87.113 31.1022 87.2313C31.0879 87.2133 30.7475 86.7797 30.1561 86.0271C29.8515 85.6473 29.4932 85.1742 29.081 84.6331C28.6689 84.0919 28.1994 83.4863 27.7013 82.8125C25.6944 80.1319 23.0926 76.4909 20.6091 72.7674C18.1184 69.0511 15.7317 65.2559 13.9864 62.3854C13.112 60.9483 12.3988 59.7442 11.8971 58.902C11.4026 58.0562 11.1194 57.5724 11.1194 57.5724C11.1194 57.5724 13.1693 61.6292 15.359 65.6143C17.5343 69.6101 19.8494 73.5307 19.8494 73.5307C19.8494 73.5307 20.3009 74.2367 20.7525 74.9463C20.9782 75.3011 21.204 75.6523 21.376 75.9175C21.5481 76.1791 21.6627 76.3547 21.6627 76.3547C21.6627 76.3547 22.0569 76.9567 22.4512 77.5588C22.6483 77.8598 22.8454 78.1609 22.9959 78.3831C23.1464 78.6053 23.2467 78.7558 23.2467 78.7558C23.2467 78.7558 24.1068 80.0531 24.9956 81.3361C25.4328 81.9811 25.8808 82.619 26.2176 83.0956C26.5545 83.5723 26.7803 83.8912 26.7803 83.8912C26.7803 83.8912 26.8376 83.9593 26.9416 84.0776C27.0455 84.1994 27.1924 84.3679 27.3716 84.5686C27.73 84.9735 28.2102 85.5147 28.6904 86.0558C29.3821 86.8156 30.0701 87.5717 30.4106 87.948C29.7655 88.6002 29.1348 89.2131 28.5399 89.7793C28.4395 89.6503 28.1313 89.2596 27.6583 88.6504C27.3608 88.2777 27.0132 87.8154 26.6119 87.2886C26.2105 86.7618 25.7553 86.1669 25.2715 85.5075C23.322 82.8878 20.7883 79.3327 18.3729 75.6989C15.9467 72.0686 13.6209 68.3702 11.915 65.5713C11.0621 64.1736 10.3633 62.9982 9.8759 62.1739C9.3921 61.3497 9.11257 60.8802 9.11257 60.8802C9.11257 60.8802 9.238 61.1275 9.46019 61.5575C9.68238 61.9876 10.0013 62.604 10.3812 63.3422C11.1517 64.8151 12.1838 66.7754 13.2518 68.7214C15.3733 72.6169 17.6275 76.4443 17.6275 76.4443C17.6275 76.4443 17.735 76.6163 17.8998 76.8779C18.0647 77.1359 18.2869 77.48 18.5055 77.824C18.9463 78.5121 19.3907 79.2001 19.3907 79.2001L20.1576 80.372C20.5375 80.9598 20.9317 81.5403 20.9317 81.5403C20.9317 81.5403 21.1431 81.8557 21.4585 82.3287C21.7703 82.8054 22.2003 83.4325 22.6303 84.0561C23.0568 84.6832 23.4904 85.3104 23.8201 85.7763C24.1463 86.2422 24.3649 86.5539 24.3649 86.5539C24.3649 86.5539 24.5942 86.8191 24.9418 87.2205C25.2895 87.6183 25.7589 88.1451 26.2248 88.6719C26.8555 89.3671 27.4827 90.0624 27.8303 90.4494C27.2067 91.0372 26.6369 91.5676 26.146 92.0442L26.1603 92.0155C26.1603 92.0155 25.8414 91.6034 25.2823 90.8831C24.9992 90.5247 24.6695 90.0803 24.2824 89.575C23.899 89.0697 23.4653 88.4963 23.003 87.8656C21.1395 85.3498 18.7133 81.9453 16.3983 78.4655C14.0724 74.9929 11.8398 71.4486 10.1984 68.7715C9.38134 67.4312 8.70761 66.3095 8.23814 65.5247C7.77226 64.7363 7.50348 64.2883 7.50348 64.2883C7.50348 64.2883 7.99086 65.2308 8.72552 66.6428C9.46377 68.0548 10.4636 69.9291 11.485 71.789C13.5241 75.5161 15.6851 79.1822 15.6851 79.1822C15.6851 79.1822 16.1044 79.8416 16.5237 80.5046C16.9466 81.164 17.3694 81.8234 17.3694 81.8234C17.3694 81.8234 17.7386 82.3861 18.1041 82.9487C18.4732 83.5114 18.8459 84.0704 18.8459 84.0704C18.8459 84.0704 19.0466 84.375 19.3512 84.8266C19.6523 85.2817 20.0608 85.8838 20.4729 86.4823C20.8815 87.0843 21.2936 87.6828 21.609 88.1308C21.9208 88.5787 22.1286 88.8762 22.1286 88.8762C22.1286 88.8762 22.3472 89.1306 22.6805 89.5141C23.0138 89.894 23.4618 90.4028 23.9061 90.9081C24.5476 91.6213 25.1891 92.3345 25.5045 92.6857C25.5009 92.6893 25.4973 92.6928 25.4937 92.7C23.003 91.2629 20.6306 89.6001 18.3944 87.7222C16.9717 85.744 15.445 83.54 13.7141 80.9347C11.6032 77.7774 9.57487 74.5628 8.08046 72.1367C7.33504 70.9218 6.71864 69.904 6.29218 69.1944C5.86572 68.4813 5.62203 68.0727 5.62203 68.0727C5.62203 68.0727 6.06999 68.9256 6.74015 70.205C7.41388 71.4844 8.32415 73.1831 9.2595 74.871C11.1123 78.2541 13.0726 81.5797 13.0726 81.5797L14.5992 83.9772C14.5992 83.9772 14.7677 84.2353 14.9863 84.5721C10.6751 80.2108 7.2777 75.1756 4.88737 69.6997L4.86945 69.6926ZM45.3869 98.993C45.4694 98.9142 45.5518 98.8353 45.6378 98.7565C47.9565 96.5597 50.999 93.5816 53.9735 90.5319C54.5362 89.9549 55.0988 89.3743 55.6507 88.7973C57.8977 88.0842 60.0873 87.1488 62.2268 86.149C59.0911 89.833 56.0413 93.2089 53.4682 95.9612C52.3358 97.1725 51.2965 98.2619 50.3862 99.208C48.7055 99.2188 47.0354 99.1507 45.3869 98.9966V98.993ZM50.8808 99.2045C50.8163 99.2045 50.7482 99.2045 50.6837 99.2045C52.8196 97.1402 55.5038 94.4775 58.127 91.7503C60.3167 89.4818 62.4562 87.1703 64.2552 85.1742C65.8571 84.3858 67.3694 83.5042 68.8567 82.5223C69.0502 82.3932 69.534 82.1961 69.9246 81.9919C69.9318 82.0456 69.9246 82.1352 69.9103 82.2499C65.5848 87.6541 61.0872 92.743 57.5465 96.5633C56.7545 97.4198 55.9983 98.1974 55.3246 98.9249C53.8588 99.0826 52.368 99.1758 50.8844 99.2045H50.8808ZM61.4276 97.8785C61.1911 97.9358 60.9546 97.9896 60.7181 98.0397C62.3236 96.4593 64.162 94.6245 65.9718 92.7502C68.4553 90.1842 70.8958 87.5789 72.6769 85.5756C73.5729 84.5793 74.3219 83.7479 74.8272 83.1494C75.3396 82.5581 75.6299 82.2176 75.6299 82.2176C75.6299 82.2176 75.8413 81.9632 76.1567 81.5833C76.3144 81.3934 76.4972 81.1712 76.6979 80.9347C76.8914 80.6946 77.0956 80.4365 77.2999 80.1785C78.1206 79.1464 78.9413 78.1143 78.9413 78.1143C78.9413 78.1143 79.1205 77.8957 79.3749 77.5552C79.6329 77.2184 79.9734 76.7668 80.3138 76.3188C80.6543 75.8673 80.9983 75.4193 81.2528 75.0825C81.5108 74.7456 81.6756 74.5162 81.6756 74.5162C81.6756 74.5162 82.034 74.0181 82.5716 73.2727C83.1055 72.5237 83.8366 71.5417 84.5068 70.5132C84.8508 70.0043 85.1913 69.4955 85.5138 69.0188C85.6751 68.7787 85.8292 68.5493 85.9761 68.3307C86.1194 68.1086 86.2485 67.8971 86.3703 67.7C86.8577 66.9188 87.1838 66.3991 87.1838 66.3991C87.1838 66.3991 87.4526 65.901 87.8576 65.152C88.2482 64.3958 88.7391 63.3709 89.2409 62.3567C89.3663 62.1022 89.4917 61.8478 89.6136 61.5969C89.7247 61.3425 89.8358 61.0881 89.9433 60.8444C90.1547 60.357 90.3518 59.9018 90.5202 59.5148C90.5525 59.4395 90.5848 59.3786 90.6134 59.3249C91.1582 60.2244 91.6742 61.1454 92.158 62.0843C91.7029 62.9767 90.04 66.2271 89.8358 66.5855C89.5956 66.9976 89.352 67.442 89.0688 67.8971C88.7857 68.3522 88.4919 68.8289 88.1801 69.327C86.9545 71.3303 85.4063 73.5988 83.7112 75.9999C81.9803 78.3759 80.106 80.8988 78.1242 83.3393L77.3895 84.2604C77.1387 84.565 76.8914 84.866 76.6405 85.167C76.1424 85.7691 75.6442 86.3712 75.1533 86.9696C74.1498 88.1487 73.1715 89.317 72.1967 90.4208C70.3619 92.5387 68.5987 94.4811 67.0612 96.1655C65.2156 96.8464 63.327 97.4233 61.4205 97.8749L61.4276 97.8785ZM69.1721 95.3376C68.6309 95.567 68.0862 95.782 67.5343 95.9934C68.355 95.2301 69.4767 94.1335 70.4443 93.1193C71.5552 91.9725 72.6375 90.7971 73.666 89.7076C74.6731 88.6002 75.6263 87.5753 76.4183 86.6758C77.2103 85.7763 77.8805 85.0344 78.3392 84.5041C78.7943 83.9737 79.0559 83.669 79.0559 83.669C79.0559 83.669 79.2423 83.4433 79.5254 83.0992C79.8049 82.7552 80.1884 82.3072 80.5504 81.8449C81.2814 80.9203 82.0161 79.9993 82.0161 79.9993C82.0161 79.9993 82.1738 79.8022 82.4103 79.5048C82.6397 79.2037 82.9479 78.8024 83.2525 78.3974C83.8653 77.5911 84.4781 76.7883 84.4781 76.7883C84.4781 76.7883 84.5569 76.6772 84.7003 76.4837C84.8401 76.2902 85.0407 76.0142 85.2844 75.6809C85.5246 75.3477 85.8077 74.9606 86.1087 74.5449C86.2592 74.3371 86.4133 74.122 86.571 73.9034C86.7251 73.6812 86.8792 73.4555 87.0333 73.2297C87.3451 72.7781 87.6533 72.3266 87.9436 71.9001C88.2338 71.4772 88.5098 71.083 88.7248 70.7318C89.1692 70.0402 89.4666 69.5779 89.4666 69.5779C89.4666 69.5779 89.7139 69.1371 90.0866 68.4705C90.4235 67.8505 92.416 64.2023 92.8282 63.4139C93.2188 64.2274 93.5843 65.0516 93.9284 65.8938C93.3299 67.1804 90.6708 72.7208 86.8505 77.8993C85.435 79.8918 83.8904 81.999 82.292 84.0633C80.1956 86.7761 78.0238 89.4245 76.042 91.7611C73.8488 93.13 71.5516 94.3306 69.1756 95.3376H69.1721ZM78.6761 89.9979C78.2389 90.3133 77.7945 90.6143 77.3501 90.9153C78.6832 89.4352 79.9304 88.0053 80.9231 86.8586C81.5681 86.0988 82.1057 85.4681 82.4784 85.0237C82.8511 84.5757 83.0625 84.3213 83.0625 84.3213L84.2774 82.7875C84.8723 82.0098 85.4708 81.2357 85.4708 81.2357C85.4708 81.2357 85.9869 80.5727 86.4814 79.8954C86.9795 79.2217 87.4813 78.5479 87.4813 78.5479C87.4813 78.5479 87.5494 78.4547 87.6676 78.2971C87.7823 78.1358 87.9471 77.9028 88.1478 77.6269C88.5385 77.0678 89.0832 76.3403 89.5921 75.5842C90.1045 74.8316 90.6278 74.0862 91.0005 73.5164C91.3732 72.9466 91.624 72.5631 91.624 72.5631C91.624 72.5631 91.8319 72.1976 92.1437 71.6493C92.4519 71.0974 92.8461 70.3555 93.2475 69.6137C93.3478 69.4274 93.4446 69.2446 93.5449 69.0618C93.6381 68.8755 93.7312 68.6963 93.8208 68.5207C94 68.1695 94.1649 67.8398 94.3082 67.5602C94.3656 67.4492 94.4157 67.3488 94.4623 67.252C94.7311 67.9652 94.982 68.6855 95.2185 69.4166C91.7315 77.5337 86.0693 84.6868 78.6832 89.9943L78.6761 89.9979ZM98.7055 57.017L86.9688 18.5458C87.2483 18.3522 87.363 18.2949 87.5063 18.1802C94.6164 26.5446 98.9886 37.3137 99.2 49.122C99.2466 51.7847 99.0782 54.4259 98.7055 57.017Z" fill="#EEECE6"/>
                        <path d="M58.3822 22.6023C58.6257 22.6023 58.823 22.4049 58.823 22.1615C58.823 21.9181 58.6257 21.7207 58.3822 21.7207C58.1388 21.7207 57.9414 21.9181 57.9414 22.1615C57.9414 22.4049 58.1388 22.6023 58.3822 22.6023Z" fill="#EEECE6"/>
                        <path d="M45.0549 62.2313C44.8184 62.0449 44.5675 61.8693 44.288 61.7511C43.6716 61.4895 42.5642 61.7762 41.9263 61.8944C41.249 62.0198 40.8333 62.2528 40.1309 62.7115C40.8333 62.2815 42.2596 62.303 42.6574 62.346C43.1734 62.3997 43.5748 62.5359 44.3561 62.9373C44.8255 63.1774 45.7071 63.077 46.5995 64.1772C46.4991 63.5788 45.1982 62.3495 45.0513 62.2349L45.0549 62.2313Z" fill="#EEECE6"/>
                        <path d="M57.6773 81.2537L49.1875 82.5689C52.3519 82.9953 55.201 82.7158 57.6773 81.2537Z" fill="#EEECE6"/>
                        <path d="M63.4937 82.8088L57.7598 83.7621C60.082 84.3032 62.0423 84.142 63.4937 82.8088Z" fill="#EEECE6"/>
                        <path d="M72.4812 71.667L68.4961 75.8994C70.675 74.921 72.1371 73.6094 72.4812 71.667Z" fill="#EEECE6"/>
                        <path d="M51.1422 83.6582L42.6523 84.9734C45.8168 85.3999 48.6658 85.1204 51.1422 83.6582Z" fill="#EEECE6"/>
                        <path d="M57.192 77.9206L48.627 77.2827C51.6122 78.4116 54.4505 78.7843 57.192 77.9206Z" fill="#EEECE6"/>
                        <path d="M40.8156 75.7023L34.4043 73.7456C36.4829 75.1182 38.5793 75.8887 40.8156 75.7023Z" fill="#EEECE6"/>
                        <path d="M32.1162 75.8386L27.8516 71.4844C28.726 74.036 30.0305 75.663 32.1162 75.8386Z" fill="#EEECE6"/>
                        <path d="M68.5989 78.168L63.1445 80.8844C65.8395 80.8378 67.789 80.0996 68.5989 78.168Z" fill="#EEECE6"/>
                        <path d="M31.3807 69.0153L29.2305 64.9155C29.3093 66.9618 29.9006 68.4312 31.3807 69.0153Z" fill="#EEECE6"/>
                        <path d="M41.1542 81.2858L33.0586 78.4116C35.6389 80.2895 38.2801 81.3969 41.1542 81.2858Z" fill="#EEECE6"/>
                        <path d="M63.8331 78.4226L57.4219 79.6303C59.9914 80.1177 62.1739 79.8776 63.8331 78.4226Z" fill="#EEECE6"/>
                        <path d="M49.1758 80.0278L40.9297 79.1426C43.8182 80.5008 46.5561 80.981 49.1758 80.0278Z" fill="#EEECE6"/>
                        <path d="M75.0837 73.6526L71.0879 78.1358C73.7434 77.118 75.2916 75.7311 75.0837 73.6526Z" fill="#EEECE6"/>
                        <path d="M53.4223 31.5258C53.7197 29.2573 53.046 28.9957 51.4082 28.666C51.4082 28.666 53.1499 30.1891 53.4223 31.5258Z" fill="#EEECE6"/>
                        </g>
                        <defs>
                        <clipPath id="clip0_2345_752">
                        <rect width="100" height="100" fill="white"/>
                        </clipPath>
                        </defs>
                      </svg>