<svg xmlns="http://www.w3.org/2000/svg" width="100" height="100" fill="none" xmlns:v="https://vecta.io/nano"><g clip-path="url(#A)" fill="#eeece6"><path d="M13.313 28.175l-1.204-1.828-.717 2.064-2.111.581 1.742 1.322-.1 2.183 1.795-1.247 2.046.771-.631-2.093 1.365-1.709-2.186-.043zm-4.955 18.42l-.935-1.419-.559 1.605-1.641.452 1.355 1.029-.075 1.699 1.394-.971 1.595.602L9 47.961l1.061-1.329-1.702-.036zM41.365 9.028l1.398-.971 1.591.598-.491-1.627 1.064-1.33-1.702-.036-.939-1.423-.559 1.609-1.641.452 1.358 1.029-.079 1.699zm-9.918 6.518l1.641-1.143 1.871.706-.577-1.914 1.247-1.562-2-.039-1.097-1.67-.659 1.889-1.924.53 1.591 1.208-.093 1.996zm-14.238 26.15l1.398-.971 1.591.599-.491-1.627 1.064-1.33-1.702-.036-.939-1.419-.559 1.605-1.641.452 1.358 1.029-.079 1.699zm10.229-14.224l1.398-.975 1.595.602-.494-1.631L31 24.14l-1.702-.036-.935-1.419-.559 1.605-1.641.451 1.355 1.029-.079 1.702zm-3.523-3.01c-7.526-7.139.147-11.439.147-11.439-10.622.09-8.658 11.515-.147 11.439zm30.056 8.972l.002-.002h-.002v.002z"/><path d="M49.26 24.617s-.025-.029-.043-.032c-.075-.007-.151.007-.226.014l-.057-.054.014.057c-.022.004-.047 0-.072.004-.108.025-.237.093-.283.226-.007.018 0 .039.011.057h.004c.38.423.631.971.828 1.512.186.512.319 1.043.419 1.577-.67-.24-1.401-.405-2.129-.276a2.61 2.61 0 0 0-1.054.466 2.96 2.96 0 0 0-.735.885c-.108.161-.165.344-.247.52a2.46 2.46 0 0 0-.168.552c-.079.373-.111.756-.1 1.14a4.39 4.39 0 0 0 .634 2.179c.369.659.842 1.261 1.466 1.706.312.219.667.387 1.054.444.19.039.383.036.577.018.19-.025.398-.054.563-.226v-.007l.007-.004c.072-.104.186-.201.297-.212.115.011.229.104.301.212v.007l.007.004c.161.169.373.197.563.222a1.92 1.92 0 0 0 .573-.022 2.5 2.5 0 0 0 1.046-.448c.616-.444 1.09-1.047 1.455-1.706a4.35 4.35 0 0 0 .634-2.172 4.84 4.84 0 0 0-.1-1.136 2.58 2.58 0 0 0-.168-.548c-.079-.172-.133-.351-.244-.512-.183-.34-.437-.634-.731-.878-.158-.104-.315-.226-.495-.29-.172-.086-.362-.129-.548-.172-.609-.108-1.222 0-1.803.179l-.265-.95c1.362-.032 2.38-.412 3.028-1.143.892-1.007.731-2.283.724-2.336-.018-.14-.136-.247-.276-.255l-.638-.011 2.204-.67-.624-.523-2.992 1.416a3.27 3.27 0 0 0-.756.358l-.466.219.272-.082a2.75 2.75 0 0 0-.337.308c-.409.448-.602.964-.692 1.408l-.043-.079-.398-.939.007-.007zm-.269.423c-.018.014-.032.014 0 0zm3.121 3.279c.663.176 1.297.391 1.541.971.072.118.136.323.201.491l.047.133.018.079.043.244a4.3 4.3 0 0 1 .032 1.007 3.65 3.65 0 0 1-.642 1.81l-.025.047-.272.387-.319.373a3.66 3.66 0 0 1-.684.62 1.76 1.76 0 0 1-.358.194c-.068.032-.107.039-.147.05a.75.75 0 0 1-.208.043c-.014 0-.065.011-.086.014h-.082c-.065 0-.129 0-.183-.011-.022 0-.039-.004-.054-.007l-.043-.05c-.054-.057-.115-.115-.19-.172a1.19 1.19 0 0 0-.609-.236c-.036 0-.075-.004-.111 0h-.007a1.21 1.21 0 0 0-.613.233 1.64 1.64 0 0 0-.194.168l-.025.029a.36.36 0 0 1-.068.007 1 1 0 0 1-.179 0c-.065 0-.108-.011-.168-.025a1.66 1.66 0 0 1-.67-.312c-.226-.165-.441-.38-.638-.627l-.294-.376-.247-.38-.032-.057a3.47 3.47 0 0 1-.541-1.727 4.16 4.16 0 0 1 .061-.943l.047-.222c.011-.05.036-.111.068-.19.061-.14.107-.301.186-.423.279-.538.681-.871 1.211-.993.265-.072.57-.079.885-.047a3.83 3.83 0 0 1 .48.079l.516.143.043.014c.093.029.197.032.297.011.727-.186 1.347-.527 2.014-.351v.003zm-1.286-3.691c.509-.556 1.322-.835 2.423-.835h.172c-.004.362-.086 1.057-.595 1.627-.538.602-1.412.918-2.605.942-.004-.391.064-1.15.602-1.734h.004zM34.221 48.126l.111.208.362-1.093-1.455-2.172-1.996-3.053-.749-1.165 1.143 2.283 2.584 4.996v-.004zm-2.679 1.849l1.824 3.469c.011-.627.097-1.347.229-2.086l-3.057-4.612-2.071-3.24-.774-1.233 1.179 2.415 2.67 5.286z"/><path d="M99.992 49.104C99.498 21.538 76.637-.48 49.103.007a49.68 49.68 0 0 0-35.088 15.277C4.744 24.896-.234 37.543.006 50.896c.118 6.587 1.502 12.955 4.025 18.836a1.81 1.81 0 0 1-.039.118l.1.032c2.587 5.978 6.361 11.443 11.188 16.102 8.067 7.784 18.27 12.532 29.236 13.719-.014.039 0 .047.064.007 1.781.19 3.58.29 5.394.29l.921-.007a51.81 51.81 0 0 0 4.655-.297 49.88 49.88 0 0 0 6.056-1.05 49.86 49.86 0 0 0 7.874-2.58c3.401-1.437 6.648-3.265 9.654-5.426a50.05 50.05 0 0 0 20.854-41.535h.004zm-16.062.498l-.154-29.655a9.07 9.07 0 0 0 1.752-.584L98.691 57.11a49.04 49.04 0 0 1-3.018 11.196c-2.483-7.239-6.551-13.582-11.744-18.703zm-28.222 49.28a291.85 291.85 0 0 0 6.225-6.325 262.72 262.72 0 0 0 7.196-7.838l.33-.376c-.082.383-.143.728-.154.953 2.498-2.1 5.856-3.996 7.418-6.934.799-1.505 1.233-3.107 1.247-4.677l.319-.434.448-.624.964-1.351 2.057-3.017c.373-.548.728-1.111 1.064-1.634l.487-.756.423-.684.634-1.025.233-.394.699-1.373c.211-.408.437-.899.688-1.419l.76-1.638.376-.835.348-.817.599-1.455.172-.444a46.48 46.48 0 0 1 1.692 2.455 55.53 55.53 0 0 1-1.086 2.39c-.161.348-.366.717-.588 1.118l-.717 1.304c-.258.462-.52.968-.824 1.48l-.968 1.613-.516.86c-.176.29-.351.591-.548.885l-1.193 1.838-.624.96-.663.964-1.38 1.989c-.466.674-.975 1.34-1.469 2.025l-1.53 2.061-1.591 2.068a37.03 37.03 0 0 1-.814 1.032l-.824 1.028c-4.383 5.487-9.103 10.712-12.697 14.571l-1.609 1.709a49.27 49.27 0 0 1-4.576.749l-.007-.004zm4.028-12.844l-2.483 1.075c.011-.014.025-.025.036-.039-.201.068-.387.125-.563.176.179-.351.846-1.548.953-2.093-2.81.391-6.397 1.032-9.232 1.165-2.749.129-6.877-.538-9.644-1.064a15.65 15.65 0 0 0 2.491-.896c.846-.416.968-.695 1.767-1.193-2.964-.093-4.645-.143-7.465-1.175-4.469-1.638-7.87-5.576-9.504-9.981a16.72 16.72 0 0 1-.405-10.364c.484-1.699 1.244-3.315 2.2-4.799.455-.702 1.061-1.312 1.588-1.96.229 5.125 2.111 9.927 7.013 11.909 2.716 1.097 3.526 1.398 5.841 1.806s5.738.219 6.329.262c2.089.147 1.068-.513.24-1.695 2.835.265 5.246 1.165 7.945 2.01a56.94 56.94 0 0 1 1.641.584c3.612 1.412 2 .176 1.351-.584 0 0-.011 0-.025.004-.319-.383-.552-.878-1.018-1.054 2.659.738 4.186.398 6.978.48-2.874-.082-6.125-.649-8.877-1.487.108.161.466.516.763.796-.308-.326 1.229 1.014 1.34 1.261l.09.039c-.05.004-.082.007-.082.011-.312.075-1.333-.469-1.577-.555a63 63 0 0 0-3.397-1.068l-2.304-.627c-.029-.208-.086-.563-.186-1.007-.154-.717-.437-1.663-.695-2.588-.151-.477-.186-.846-.136-1.226.047-.358.197-.631.369-.95.176-.312.337-.674.405-.907.079-.24.108-.376.108-.376s0-.287-.05-.681a17.34 17.34 0 0 0-.244-1.38c-.108-.498-.265-1-.448-1.34s-.358-.516-.358-.516.097.233.126.584.079 2.075-.029 2.537c-.362 1.541-.996 2.455-.95 3.01.025.53.244 1.114.477 1.523.448.874.903 1.72 1.193 2.383a13.47 13.47 0 0 1 .373.921c-1.34-.34-2.695-.634-4.064-.77.204.444 1.057 1.638.606 1.967-.369.269-3.444.036-3.849 0-3.06-.24-4.999-.738-7.751-2.204a11.63 11.63 0 0 1-3.028-2.333c-.029-.086-.061-.161-.086-.258-.229-.77-1.197-2.448-1.075-3.491.118-1.036.021-2.641 2.77-3.917 1.652-.767 3.792-.154.839-1.226-.824-1.749-.563-7.2-.129-7.067.19.269 5.257 3.577 5.587 5.211.283.179 0 0 .136.172 2.709 3.43 1.14-.097 1.14-.097 1.308-.348 3.469.057 4.154.763.778.803.086-3.784 4.584-5.702-.681 1.788-1.763 3.276-2.426 4.01-.222.247.176 1.147-.373 1.96 3.602-.652 6.798-1.387 10.468-1.577 3.39-.176 6.641.584 9.353 2.684 2.179 1.688 4.042 4.035 5.361 6.447.72 1.312 1.312 2.763 1.394 4.272.05.896-.229 1.423-.627 2.197-.555 1.079.079 1.398.652 2.304.219.344 1 2.459 1.054 2.799.57 4.017-2.523 6.666-5.193 9.282-.147-1.258.663-3.118.151-2.921-1.165.455-3.895 2.491-4.949 3.157-2.1 1.326-4.383 2.383-6.644 3.401l.004.004zM49.089 94.89l-3.935 4.082a50.15 50.15 0 0 1-4.222-.595l.749-.699a301.68 301.68 0 0 0 8.605-8.407l2.498-2.577 2.964-.326c-.169.799-1.021 1.838-1.254 2.659L49.09 94.89zm-12.572 2.458l.018-.018 1.172-1.097c2.423-2.279 5.605-5.365 8.705-8.54l.559-.573c1.52-.043 3.118-.165 4.68-.315-2.286 2.552-4.469 4.899-6.404 6.917l-4.508 4.616a47.84 47.84 0 0 1-4.222-.993v.004zM25.752 92.79a17.34 17.34 0 0 0 2.333-1.81c2.179-2.075 4.784-4.885 7.544-7.762 1.061.376 2.164.652 3.286.849l-.151.165-.326.061c-1.089.215-2.147.556-3.211.864a32.65 32.65 0 0 0 2.028.71l-2.749 2.928-5.573 5.702a48.4 48.4 0 0 1-3.204-1.663l.021-.039v-.004zm8.103-8.526l-.917-1.172c-.308-.387-.674-.871-1.093-1.419l-.627-.824c1.168.903 2.448 1.606 3.799 2.139l-1.165 1.276h.004zm-2.978 8.569a328.78 328.78 0 0 0 6.977-6.787c1.19.344 2.38.606 3.598.785l-3.501 3.774-5.297 5.469a47.73 47.73 0 0 1-3.609-1.527l1.835-1.713h-.004zm3.44 1.842a306.33 306.33 0 0 0 7.859-7.744 29.29 29.29 0 0 0 2.681.201 32.63 32.63 0 0 0 1.19.011l-4.73 5.082-4.956 5.082a47.1 47.1 0 0 1-3.605-1.19c.29-.251.77-.688 1.559-1.441h.004zm-1.312-31.737c.05.036.09.083.115.143-.039-.047-.075-.097-.115-.143zM57.93 37.213l1.046 1.86 1.283 2.218.541.77.466.659 1.018 1.423.383.323c-.358.788-.77 1.645-1.229 2.552l-.602-.72a198.95 198.95 0 0 1-3.24-4.003c-1.853-2.344-3.645-4.741-4.293-5.616a48.08 48.08 0 0 1 4.627.534zm5.698.014c-.34-.244-.778-.552-1.046-.778.011-.007.021-.014.036-.022.441-.301.993-.674 1.236-1.175.233-.477.315-1.394.333-2.111.989.333 4.146.043 5.641-1.064.688-.032 1.362.208 2 .591.018.018.036.032.05.05.57.613 1.068 1.315 1.555 2.028l.19.283-1.76 5.913a47.87 47.87 0 0 0-5.608-2.398c-.638-.226-1.279-.437-1.928-.638.007-.022.011-.043.011-.065 0-.107-.129-.201-.71-.613v-.004zm-6.766-13.385c-.054-.312-.168-.577-.265-.835l-.022-.054-.054-.047-.986-.849-.416-.387 1.172-.24c.111-.025.219-.05.34-.09.068-.029.108-.021.24-.122.09-.086.086-.093.136-.143a2.95 2.95 0 0 1 .444-.405c.634-.491 1.466-.638 2.272-.527a4.38 4.38 0 0 1 .595.122c.047.014.093.025.14.04-.774-.115 1.552 1.541.874 3.48-.527 1.505-.896 7.386.749 8.923-1.864-.502-3.161-1.512-4.473-3.44a5.87 5.87 0 0 1-.204-.312c-.004-.007-.007-.011-.011-.018-.1-.158-.172-.305-.251-.448-.093-.183-.183-.366-.251-.559a.16.16 0 0 0-.011-.029c-.172-.494-.226-1.011-.204-1.541.018-.537.108-1.068.176-1.627.029-.279.057-.577.007-.892zm20.907 47.903c-.186-.821-.498-1.616-.946-2.369l.075-.108 1.014-1.484 1.136-1.72 2.05-3.275.656-1.093.24-.419.717-1.459c.409-.889.968-2.057 1.466-3.261l.38-.892.344-.874c.219-.57.437-1.09.591-1.552l.211-.602a43.69 43.69 0 0 1 1.756 2.125c-.108.297-.269.731-.376.978-.172.409-.459.989-.81 1.735a88.6 88.6 0 0 1-3.233 6.035c-1.43 2.455-3.215 5.254-5.236 8.185-.014.018-.025.036-.039.057l.004-.007zM65.044 38.962l-.204.072-.247.727a8.86 8.86 0 0 1-.201.57l-1.684-2.071a47.56 47.56 0 0 1 2.34.702h-.004zm-.555 4.935l.38-.982.33-.968c.208-.631.427-1.204.563-1.717l.272-.928c.86.305 1.706.634 2.544.986l-.14.047s-.161.749-.322 1.229c-.151.484-.441 1.168-.781 2.05a70.31 70.31 0 0 1-3.387 7.106l-.459.835a14.57 14.57 0 0 0-2.15-.233c-.111-.004-.219 0-.33-.004l.319-.552.692-1.201.251-.462.745-1.605.717-1.666c.269-.606.52-1.269.77-1.928l-.014-.007zm1.254 7.056l.756-1.613c.419-.986 1.007-2.279 1.505-3.616l.383-.989.333-.975c.211-.631.43-1.211.566-1.727l.373-1.272a46.98 46.98 0 0 1 2.182 1.05c-.061.262-.211.9-.34 1.272-.15.484-.437 1.172-.785 2.057a69.58 69.58 0 0 1-3.39 7.135l-.251.455a14.42 14.42 0 0 0-1.91-.76l.573-1.025.004.007zm3.139 2.021l.254-.466.756-1.62c.423-.989 1.007-2.29 1.505-3.63l.384-.993.333-.975c.215-.634.43-1.218.57-1.734l.33-1.122c.727.401 1.444.821 2.15 1.258l-.509 1.566c-.147.48-.434 1.161-.774 2.039a68.97 68.97 0 0 1-3.354 7.067l-.244.444a16.36 16.36 0 0 0-1.72-1.254l.326-.577-.007-.004zm3.179 2.082l.251-.462.749-1.602c.419-.978.996-2.265 1.491-3.594l.376-.982.333-.968c.211-.627.426-1.204.563-1.717l.398-1.358a48.62 48.62 0 0 1 2.544 1.799l-.452 1.319c-.154.473-.441 1.143-.785 2.003l-.276.681-.333.735-.756 1.652-.917 1.856-1.079 2.028-.846 1.502c-.57-.695-1.172-1.355-1.781-1.975l.523-.914-.004-.004zm2.932 3.261l.688-1.183.251-.455.208-.434.541-1.143.72-1.638.201-.455.19-.473.387-.968.38-.968.337-.95c.215-.616.43-1.183.573-1.688l.308-1.007a44.42 44.42 0 0 1 2.078 1.77l-.423 1.19c-.161.455-.455 1.104-.806 1.939a76.4 76.4 0 0 1-3.369 6.73c-.498.892-1.046 1.831-1.634 2.795-.365-.702-.781-1.38-1.24-2.035l.609-1.029zm9.45-5.569c-.165.434-.455 1.054-.806 1.849-.72 1.584-1.806 3.824-3.286 6.433-.96 1.699-2.086 3.559-3.34 5.501.039-.821-.104-1.663-.312-2.43a12.52 12.52 0 0 0-.319-1.004l1.663-2.684.681-1.143.247-.437.742-1.527c.419-.932.996-2.157 1.502-3.415l.387-.935.344-.917c.219-.595.441-1.143.591-1.631l.265-.799a48.02 48.02 0 0 1 2.036 2.061l-.398 1.079h.004zm-12.562-11.8l2.122-5.365c.312.448.638.892.996 1.304.15.172.287.348.513.53.111.086.262.204.52.236a.82.82 0 0 0 .645-.233c.186-.186.236-.426.247-.577a2.1 2.1 0 0 0-.018-.416c-.032-.247-.082-.466-.136-.688-.025-.108-.043-.204-.104-.366-.054-.143-.108-.233-.161-.348a13.46 13.46 0 0 0-.344-.591 26.89 26.89 0 0 0-.735-1.107c-.111-.161-.226-.315-.34-.473l5.082-12.848c.534.097 1.082.154 1.645.154.068 0 .133-.004.197-.007l1.903 29.426a47.99 47.99 0 0 0-12.031-8.637v.004zm1.975-9.744c-1.079-1.387-2.222-2.72-3.408-4.014a55.06 55.06 0 0 0-1.616-1.684l7.913-6.902a8.85 8.85 0 0 0 1.527.835l-3.763 12.625-.649-.86h-.004zm-5.852.487l-.577.143c-1.419-.398-2.523-1.57-3.437-3.29l4.014 3.146zm7.21-14.396l-7.321 7.304a36.16 36.16 0 0 0-1.208-1.104c-1.33-1.154-2.724-2.258-4.318-3.078a1.14 1.14 0 0 0-.122-.057l11.833-4.551A9.02 9.02 0 0 0 75.21 17.3l.004-.004zM65.438 31.59c-1.265-.039-2.186-.903-2.924-2.29l2.924 2.29zm-3.032 6.587l.986 1.903.652 1.129-.229.588-.749 1.77-2.243-2.752-2.81-3.587a47.06 47.06 0 0 1 4.39.95h.004zm-9.178-1.505l1.638 3.003 1.878 3.322.799 1.154.692.985.752 1.064.76 1.057.95.796.14.115-.373.699-1.168 2.1-1.154-1.426a204.16 204.16 0 0 1-4.089-5.286 228.38 228.38 0 0 1-3.935-5.415l-1.57-2.247 1.534-.025a48.22 48.22 0 0 1 3.146.104zM.795 50.882a48.87 48.87 0 0 1 13.79-35.049A48.87 48.87 0 0 1 49.118.799c.301-.007.598-.007.896-.007a48.91 48.91 0 0 1 21.323 4.874L50.1 1.315l23.197 6.813c-.197.563-.692 1.584-.778 2.19l-22.223.986 22.538.778c.068.659.208 1.294.412 1.903l-12.514 5.77a5.39 5.39 0 0 1-.24-.068 5.25 5.25 0 0 0-.688-.129c-.91-.115-1.932.072-2.684.674-.183.14-.373.315-.516.484l-.079.09s-.043.021-.061.025c-.086.029-.19.054-.29.079l-1.279.28-.172.047c-.032.011-.064.021-.107.039l-.036.018s-.072.047-.097.079c-.054.082.014-.05-.061.111-.025.065.011.194.014.186.133.222.186.229.276.333.165.158.33.301.495.448l.961.803c.093.236.19.462.226.677.043.233.025.491 0 .76-.057.534-.143 1.097-.158 1.663a4.56 4.56 0 0 0 .183 1.398c.018.068.029.14.054.208.011.032.014.068.025.1.036.097.09.186.133.28a4.96 4.96 0 0 0 .211.444l.097.165c.086.151.161.294.269.455.025.036.047.072.072.108 1.498 2.197 3.05 3.293 5.336 3.752.036.09.082.194.14.319.039.089.093.204.126.29v.032a.51.51 0 0 0 .018.133.91.91 0 0 1 .039.247c0 .358-.276.62-.864 1.089l-.308.247c-.638.534-.935.613-1.057.613h-.021c-.294 0-.595.086-.91.179-.287.082-.581.165-.867.179a46.38 46.38 0 0 0-2.337-.369l4.082-3.505-.588-.29-3.774 3.759a48.66 48.66 0 0 0-6.203-.394c-1.914 0-3.802.111-5.662.326a.62.62 0 0 0-.251-.215l.025-.032c-.032 0-.057.011-.086.011-.093-.032-.186-.05-.262-.072-.197-.025-.383-.032-.563-.025a10.86 10.86 0 0 0-1.043.093c-.674.079-1.358.193-1.985.183-.312.011-.448-.086-.731-.348-.251-.219-.491-.444-.684-.688a1.52 1.52 0 0 1-.229-.373c-.029-.061-.043-.133-.054-.172-.007-.021-.007-.079-.011-.115l.007-.093a1.98 1.98 0 0 1 .269-.792c1.434-.595 2.806-1.315 4.025-2.297.624-.509 1.175-1.104 1.573-1.803.419-.674.706-1.491.684-2.304a11.16 11.16 0 0 0-.297-2.351c-.086-.38-.179-.756-.19-1.122-.018-.251.043-.491.168-.667.136-.054.276-.104.423-.14l1.968-.831h.011l.004-.007 2.193-.95.036-.014.19-.082-.021-.215c-.204-2.1-1.695-3.01-2.974-3.566-1.609-.699-3.541-.659-5.046.104-1 .509-2.29 1.566-2.749 3.666-2.011 4.179-7.909 8.988-11.432 11.859-2.186 1.781-2.899 2.39-2.992 2.767a5.45 5.45 0 0 0-.143.814c-.129.222-.215.455-.204.477.014.083.018.158.082.294.036.122.29.358.552.326.115-.007.194-.039.258-.072.036-.022.068-.036.122-.083l.025-.021.104-.093.416-.369.824-.731c.552-.48 1.115-.943 1.695-1.376 1.122-.813 2.398-1.666 3.637-1.724.487.272.91.369 1.104.581.172.129.079.509-.161.91l-.552.921 1.018-.348c.624-.212 1.294-.394 1.95-.588.523-.165 1-.276 1.541-.48a3.61 3.61 0 0 0 .251.935c.186.459.599.903.978 1.147a10.36 10.36 0 0 1 .52.401c.047.039.086.079.125.115-.086.029-.165.05-.326.133a.48.48 0 0 0-.118.1.37.37 0 0 0-.054.373c.025.05.047.082.068.107-15.635 3.95-28.4 15.522-33.704 31.315C2.153 63.041.917 57.064.809 50.892l-.014-.011zm37.038-16.399c.029.272.1.419.183.588-.147-.151-.254-.312-.355-.527-.151-.33-.226-.756-.226-1.1l.007-.774-.724.351c-.294.143-.864.308-1.319.441l-1.459.416c-.061.018-.125.043-.186.061.043-.312-.05-.72-.301-.96-.222-.204-.448-.319-.659-.412a17.87 17.87 0 0 0 1.756-.642c.91-.34 1.76-.806 2.548-1.358 2.129-1.408 3.447-3.068 4.501-4.472l.932-1.229c.491-.627.971-1.158 1.509-1.538-.032.28-.004.548.025.774.068.448.176.853.244 1.247.111.792.222 1.631.086 2.337 0 0-.05.441-.394 1.068-.183.333-.38.649-.692 1.036a7.75 7.75 0 0 1-1.018.95c-.778.606-1.656 1.104-2.329 1.437-.674.34-1.14.527-1.14.527l-.344.14-.154.061-.072.115a2.74 2.74 0 0 0-.387.946 1.98 1.98 0 0 0-.036.258l-.007.161.007.108.004-.007zm7.178-14.858a30.12 30.12 0 0 1 .115 2.408l-.108.039-.075.029-.104.05c-.05.025-.086.039-.147.075-.068.043-.111.1-.172.151-.405.165-.77.398-1.115.684-1.05.194-2.853.219-3.713-1.587-.186-.237-.222-.527-.179-.835a2.7 2.7 0 0 1 .061-.186c.029-.079.068-.158.1-.236.523-.212 3.247-1.24 5.336-.588v-.003zm-4.91-.197a3.79 3.79 0 0 1 1.043-1.054c.491-.348 1.054-.581 1.641-.731l.093 1.197c-1.1.082-2.118.366-2.777.588zm4.039-.738c-.125.036-.251.075-.376.093-.097.011-.197.007-.297.007l-.258-1.365c.226.376.577.914.932 1.269v-.004zm-.466-1.204a7.06 7.06 0 0 1 .613-.047c.158 0 .315.014.473.025l.165 1.308c-.29-.376-.752-.921-1.251-1.287zm2.663.265l1.032 2.286-.598 1.383-1.057.394c-.018-1.717-.229-3.469-.34-4.29a6.32 6.32 0 0 1 .968.226h-.004zm.792.315c.118.057.236.118.348.186a2.14 2.14 0 0 1 .491.373c.039.036.075.068.108.104.437.48.652 1.129.76 1.849l-1.175.509-.125.047.477-1.1-.889-1.968h.007zM4.869 69.693c4.87-15.449 16.947-26.932 31.902-31.25l.989 1.921 2.329 4.401 2.408 4.365.813 1.43.312.541.269.409c.473-.183.986-.401 1.498-.659l-.563-.767a264.24 264.24 0 0 1-5.63-8.013l-1.795-2.688-.62-.939a46.14 46.14 0 0 1 3.451-.853l.849 1.616 2.179 4.042 2.251 4.01 1.05 1.81.487.731c.075-.061.154-.125.226-.19a23.81 23.81 0 0 1 .917-.781l-.527-.71a263.6 263.6 0 0 1-5.247-7.361l-2.157-3.182a48.89 48.89 0 0 1 4.193-.681l2.716 4.999 1.975 3.48.917 1.573.312.466c.423-.201.846-.355 1.272-.455l-.624-.835a267.3 267.3 0 0 1-4.598-6.386l-1.957-2.842c1.333-.154 2.681-.255 4.042-.297l2.251 4.078 2.476 4.29 1.025 1.509.889 1.286.975 1.387.986 1.376 1.011.953c-.892.108-1.767.265-2.638.452l-2.81-3.595c-.186.627-.391 1.136-.616 1.563l.244.351 1.147 1.627.322.448-2.448.616-.516-.663c1.179-2.043 1.254-3.863 1.717-5.454-4.254 1.738-4.623 3.215-7.042 4.508-1.695.903-1.484.197-3.161.659a265.02 265.02 0 0 1-5.945-8.54l-1.907-2.885-.713-1.1 1.093 2.157 2.469 4.72 1.093 2.028c1.459 1.061 2.906 2.244 3.91 3.616-.057.014-.115.032-.176.05l-.287-.301c-.118-.183-4.085-3.537-6.347-4.92-1.183 1.559-1.541 4.799-1.541 4.799s.108 2.476.029 3.05c-1.53 2.254-2.487 3.161-2.623 4.05-.072.466-.118.878-.143 1.243-.516-1.247-.853-2.569-1-3.917-.011-.111-.011-.477 0-.925l1.168 2.183a9.18 9.18 0 0 1 .942-1.466L30.3 52.806v-.047s-.007.007-.018.021l-2.684-4.085-2.118-3.337-.792-1.272.33.684.874 1.803 2.731 5.444.857 1.656-.889.996a20.59 20.59 0 0 0-.889 1.125l-3.125-4.773-2.172-3.437-.813-1.312.337.706.896 1.86 2.795 5.608 1.297 2.509a19.31 19.31 0 0 0-.645 1.115 17.06 17.06 0 0 0-.559 1.15l-3.831-5.841-2.197-3.487-.821-1.329.34.717.903 1.885 2.824 5.687 2.118 4.075a17.78 17.78 0 0 0-.792 3.584l-2.129-3.333-3.071-4.996-2.114-3.569-.788-1.362s2.075 4.154 4.29 8.239l3.1 5.591.609 1.068c0 .064-.004.125-.004.19-.014 2.143.384 4.243 1.118 6.221l-2.003-2.967-3.638-5.609-3.068-4.963-2.114-3.548-.788-1.351a315.64 315.64 0 0 0 4.29 8.189c2.2 4.068 4.544 8.06 4.544 8.06l.914 1.441.631.989.29.448.799 1.226.552.839.254.38 1.77 2.627 1.24 1.792.566.81a11.76 11.76 0 0 0 .165.19l.437.502 1.337 1.516 1.72 1.899-1.727 1.849-.337.355-.946-1.204c-.305-.38-.663-.853-1.075-1.394l-1.38-1.821c-2.007-2.681-4.609-6.322-7.092-10.045-2.491-3.716-4.877-7.511-6.623-10.382l-2.089-3.483-.778-1.33a301.39 301.39 0 0 0 4.24 8.042c2.175 3.996 4.49 7.916 4.49 7.916l.903 1.416.624.971.287.437.788 1.204.545.824.251.373 1.749 2.58 1.222 1.76.563.796.161.186.43.491 1.319 1.487 1.72 1.892c-.645.652-1.276 1.265-1.871 1.831l-.882-1.129c-.297-.373-.645-.835-1.046-1.362l-1.34-1.781a235.85 235.85 0 0 1-6.899-9.809 298.59 298.59 0 0 1-6.458-10.128l-2.039-3.397-.763-1.294.348.677.921 1.785 2.871 5.379a305.37 305.37 0 0 0 4.376 7.723l.272.434.606.946.885 1.376.767 1.172.774 1.168.527.788c.312.477.742 1.104 1.172 1.727l1.19 1.72.545.778.577.667 1.283 1.451 1.606 1.778-1.684 1.595.014-.029-.878-1.132c-.283-.358-.613-.803-1-1.308l-1.279-1.709a237.51 237.51 0 0 1-6.605-9.4c-2.326-3.473-4.558-7.017-6.2-9.694l-1.96-3.247-.735-1.236 1.222 2.354 2.759 5.146c2.039 3.727 4.2 7.393 4.2 7.393l.839 1.322.846 1.319.735 1.125.742 1.122.505.756 1.122 1.656 1.136 1.648.52.745.552.638 1.226 1.394 1.598 1.778c-2.501-1.423-4.874-3.086-7.11-4.963a220.72 220.72 0 0 1-4.68-6.787c-2.111-3.157-4.139-6.372-5.634-8.798l-1.788-2.942-.67-1.122 1.118 2.132 2.519 4.666a279.98 279.98 0 0 0 3.813 6.709l1.527 2.397.387.595C10.675 80.211 7.278 75.176 4.887 69.7l-.018-.007zm40.517 29.3l.251-.236a310.53 310.53 0 0 0 8.336-8.225l1.677-1.735c2.247-.713 4.437-1.649 6.576-2.648a286.25 286.25 0 0 1-8.759 9.812l-3.082 3.247c-1.681.011-3.351-.057-4.999-.211v-.004zm5.494.212h-.197a298.35 298.35 0 0 0 7.443-7.454 267.29 267.29 0 0 0 6.128-6.576c1.602-.788 3.114-1.67 4.602-2.652.194-.129.677-.326 1.068-.53.007.054 0 .143-.014.258-4.326 5.404-8.823 10.493-12.364 14.313l-2.222 2.362a50.83 50.83 0 0 1-4.44.28h-.004zm10.547-1.326l-.709.161 5.254-5.289c2.483-2.566 4.924-5.171 6.705-7.175l2.15-2.426.803-.932.527-.634.541-.649.602-.756 1.641-2.064s.179-.219.434-.559l.939-1.236.939-1.236.423-.566.896-1.243c.534-.749 1.265-1.731 1.935-2.76l1.007-1.494.462-.688.394-.631.814-1.301.674-1.247c.391-.756.881-1.781 1.383-2.795l.373-.76.33-.752.577-1.33c.032-.075.065-.136.093-.19a46.01 46.01 0 0 1 1.545 2.759l-2.322 4.501c-.24.412-.484.856-.767 1.312l-.889 1.43c-1.226 2.003-2.774 4.272-4.469 6.673-1.731 2.376-3.605 4.899-5.587 7.339l-.735.921-.749.907-1.487 1.803-2.957 3.451-5.136 5.745c-1.846.681-3.734 1.258-5.641 1.709l.007.004zm7.745-2.541a52.23 52.23 0 0 1-1.638.656 73.88 73.88 0 0 0 2.91-2.874l3.222-3.412 2.752-3.032 1.921-2.172.717-.835.47-.57 1.025-1.254 1.466-1.846.394-.495.842-1.107 1.226-1.609.222-.305.584-.803.824-1.136.462-.641.462-.674.91-1.33c.29-.423.566-.817.781-1.168l.742-1.154.62-1.107 2.742-5.057a45.18 45.18 0 0 1 1.1 2.48c-.599 1.287-3.258 6.827-7.078 12.005a186.67 186.67 0 0 1-4.558 6.164 221.06 221.06 0 0 1-6.25 7.698 49.22 49.22 0 0 1-6.866 3.576h-.004zm9.504-5.34c-.437.315-.882.616-1.326.917l3.573-4.057 1.555-1.835.584-.702 1.215-1.534 1.193-1.552s.516-.663 1.011-1.34l1-1.347.186-.251.48-.67 1.444-2.043 1.408-2.068.623-.953.52-.914 1.104-2.036.297-.552.276-.541.487-.961.154-.308a47.27 47.27 0 0 1 .756 2.165 49.3 49.3 0 0 1-16.535 20.578l-.007.004zm20.029-32.981L86.969 18.546c.279-.194.394-.251.537-.366A48.97 48.97 0 0 1 99.2 49.122a49.31 49.31 0 0 1-.495 7.895zM58.382 22.602a.441.441 0 1 0 0-.882.441.441 0 1 0 0 .882zM45.055 62.231a3.4 3.4 0 0 0-.767-.48c-.616-.262-1.724.025-2.362.143-.677.125-1.093.358-1.795.817.702-.43 2.129-.409 2.527-.366.516.054.917.19 1.699.591.469.24 1.351.14 2.243 1.24-.1-.598-1.401-1.828-1.548-1.942l.004-.004zm12.622 19.023l-8.49 1.315c3.164.426 6.014.147 8.49-1.315zm5.817 1.555l-5.734.953c2.322.541 4.282.38 5.734-.953zm8.987-11.142l-3.985 4.232c2.179-.978 3.641-2.29 3.985-4.232zM51.142 83.658l-8.49 1.315c3.165.427 6.014.147 8.49-1.315zm6.05-5.737l-8.565-.638c2.985 1.129 5.823 1.502 8.565.638zm-16.376-2.219l-6.411-1.957c2.079 1.373 4.175 2.143 6.411 1.957zm-8.7.137l-4.265-4.354c.874 2.552 2.179 4.179 4.265 4.354zm36.483 2.329l-5.454 2.716c2.695-.047 4.645-.785 5.454-2.716zm-37.218-9.153l-2.15-4.1c.079 2.046.67 3.516 2.15 4.1zm9.773 12.271l-8.096-2.874c2.58 1.878 5.221 2.985 8.096 2.874zm22.679-2.863l-6.411 1.208c2.569.487 4.752.247 6.411-1.208zm-14.657 1.605l-8.246-.885c2.889 1.358 5.626 1.838 8.246.885zm25.908-6.375l-3.996 4.483c2.655-1.018 4.204-2.405 3.996-4.483zM53.422 31.526c.297-2.268-.376-2.53-2.014-2.86 0 0 1.742 1.523 2.014 2.86z"/></g><defs><clipPath id="A"><path fill="#fff" d="M0 0h100v100H0z"/></clipPath></defs></svg>