<svg width="1225" height="307" viewBox="0 0 1225 307" fill="none" xmlns="http://www.w3.org/2000/svg">
<g clip-path="url(#clip0_2345_710)">
<path d="M353.186 13.9055C440.469 -21.6627 537.917 13.8795 576.397 108.286C615.45 204.123 571.743 303.235 485.865 338.232C400.48 373.02 301.784 338.544 263.329 244.137C224.667 149.262 266.371 49.2917 353.186 13.9315V13.9055ZM478.507 320.187C535.447 296.995 562.175 221.387 526.217 133.142C490.077 44.4297 417.458 8.73146 360.518 31.9236C303.11 55.2978 278.202 131.296 314.134 219.541C350.092 307.785 421.566 343.38 478.481 320.187H478.507Z" fill="#FBFBFB"/>
<path d="M620.073 331.13L614.145 231.004H616.433C647.373 296.992 686.971 331.572 737.021 331.572C771.16 331.572 802.542 311.552 802.542 272.422C802.542 237.374 777.972 218.732 735.201 198.712L691.963 178.223C644.643 155.915 616.433 129.525 616.433 87.1969C616.433 38.0826 661.491 0.746338 720.173 0.746338C753.843 0.746338 777.504 6.20637 814.372 16.6844L819.832 110.883H817.57C787.54 50.8227 757.509 20.3245 714.271 20.3245C677.871 20.3245 651.481 40.8126 651.481 70.8428C651.481 98.611 670.149 114.523 717.469 136.831L760.707 157.319C811.226 180.979 837.616 214.65 837.616 252.896C837.616 309.784 788.918 351.203 726.569 351.203C682.421 351.203 650.129 341.193 620.073 331.182V331.13Z" fill="#FBFBFB"/>
<path d="M942.879 345.54H876.24V344.11C878.606 332.773 885.704 305.837 885.704 278.407V72.3558C885.704 44.9516 878.606 18.0155 876.24 6.6534V5.22339H942.879V6.6534C940.045 17.9895 932.947 44.9256 932.947 72.3558V278.407C932.947 305.811 940.045 332.747 942.879 344.11V345.54Z" fill="#FBFBFB"/>
<path d="M1054.68 178.229V328.509H1141.65C1175.68 328.509 1209.72 294.943 1222.46 287.403H1224.82V345.54H997.973V344.11C1000.34 332.773 1007.44 305.837 1007.44 278.407V72.3558C1007.44 44.9516 1000.34 18.0155 997.973 6.6534V5.22339H1223.42V62.8918H1221.05C1208.29 55.3257 1174.25 22.2535 1140.25 22.2535H1054.71V162.628H1107.64C1140.25 162.628 1172.38 149.394 1185.15 145.624H1186.58V194.765H1185.15C1172.38 190.995 1140.25 178.229 1107.64 178.229H1054.71H1054.68Z" fill="#FBFBFB"/>
<path d="M140.219 153.419C168.403 143.695 201.189 113.977 201.189 78.1223C201.189 27.916 157.639 6.41382 97.7086 6.41382H0V7.81783C2.36602 19.1279 9.41206 45.9601 9.41206 73.2862V278.662C9.41206 293.456 7.33205 308.094 5.07003 320.21L3.74402 321.198C4.18603 321.822 4.47203 322.55 4.44603 323.434V323.486C2.70402 332.274 0.962006 339.476 0 344.104V345.508H56.5244H107.433C167.883 345.508 231.921 313.736 231.921 239.973C231.921 186.699 187.357 157.995 140.219 153.393V153.419ZM60.2944 24.3279H88.4786C127.401 24.3279 153.037 44.2961 153.037 85.2983C153.037 122.193 127.947 152.925 103.871 152.925H60.3204V24.3279H60.2944ZM107.927 328.114C86.3985 328.114 70.5385 322.992 60.2944 318.884V170.319H95.6546C143.807 170.319 179.661 193.875 179.661 247.669C179.661 297.356 144.301 328.088 107.953 328.088L107.927 328.114Z" fill="#FBFBFB"/>
</g>
<defs>
<clipPath id="clip0_2345_710">
<rect width="1224.84" height="351.106" fill="white" transform="translate(0 0.358154)"/>
</clipPath>
</defs>
</svg>
