<svg xmlns="http://www.w3.org/2000/svg" width="163" height="61" viewBox="0 0 163 61" fill="none">
  <g clip-path="url(#clip0_2345_975)">
    <path d="M152.384 55.2897C158.486 55.2897 162.129 51.7153 162.129 45.8577L162.156 16.4199H151.514V18.6895H155.985V29.4535C155.985 33.789 154.382 37.6352 150.4 37.6352C147.056 37.6352 145.439 34.9714 145.439 30.9349V16.4199H135.056V18.6895H139.269V29.5215C139.269 36.5072 143.169 40.4077 148.85 40.4077C151.745 40.5708 154.49 39.1166 155.985 36.6295L155.958 47.1352C155.958 50.5194 154.436 52.5036 150.957 52.5036C148.905 52.6395 146.92 51.7018 145.711 50.0301C146.241 50.3155 146.825 50.465 147.423 50.465C149.204 50.5329 150.699 49.1331 150.767 47.3527C150.767 47.2575 150.767 47.1624 150.767 47.0809C150.835 45.2189 149.367 43.656 147.505 43.588C147.396 43.588 147.301 43.588 147.192 43.588C144.719 43.588 143.101 45.5179 143.101 48.2089C143.101 52.2998 146.852 55.2762 152.384 55.2762M118.203 26.3276C118.203 20.4699 119.779 17.9556 122.851 17.9556C125.922 17.9556 127.472 20.4428 127.472 26.3276H118.203ZM123.598 40.6524C128.804 40.8562 133.438 37.377 134.716 32.3348H132.813C131.699 35.6509 128.6 37.8934 125.093 37.8934C120.907 37.8934 118.203 34.7539 118.203 28.3391H132.935C134.172 28.3391 134.539 27.809 134.539 26.2868C134.539 20.8505 129.973 15.9306 122.905 15.9306C115.158 15.9306 111.217 21.829 111.217 28.0944C110.986 34.7947 116.232 40.4077 122.932 40.6388C123.164 40.6388 123.381 40.6388 123.612 40.6388M94.5819 40.1767H110.307V37.9342H105.523V1.17091C101.894 1.61941 98.2379 1.80968 94.5955 1.75532V4.0114H99.3659V37.9342H94.5955V40.1767H94.5819ZM72.1434 40.1767H88.4252V37.9342H82.5268V32.7017C82.5268 23.9628 85.0955 19.8991 88.4252 18.4993C88.1534 19.0157 88.0039 19.6001 88.0175 20.1981C87.9767 22.0601 89.4446 23.6094 91.3065 23.6638C91.3745 23.6638 91.4424 23.6638 91.5104 23.6638C93.481 23.691 95.0984 22.1144 95.1255 20.1438C95.1255 20.0486 95.1255 19.9399 95.1255 19.8448C95.1255 17.4256 93.3587 15.8762 90.5318 15.8762C86.9031 15.8762 84.0898 18.3905 82.554 22.7396V15.8762C79.1155 16.2975 75.6498 16.4878 72.1706 16.4335V18.7031H76.3837V37.9342H72.1706V40.1767H72.1434ZM53.1705 40.6524C55.9567 40.8698 58.6069 39.4156 59.9252 36.9557V40.1767H69.8194V37.9206H66.1226V16.4199H59.9252V19.6273C58.6069 17.1674 55.9567 15.7131 53.1705 15.9306C46.6333 15.9306 42.1619 20.9864 42.1619 28.2983C42.1619 35.6102 46.6333 40.666 53.1705 40.666M54.3529 38.3419C50.5067 38.3419 48.8351 34.0064 48.8351 28.3255C48.8351 22.6445 50.4116 18.2682 54.3529 18.2682C57.9137 18.2682 59.9116 21.9649 59.9116 28.3119C59.9116 34.6588 57.9002 38.3555 54.3529 38.3555M0.845703 40.1767H16.8829V37.907H12.5338V20.6059H28.8157V37.907H24.4666V40.1767H40.4767V37.907H36.1276V2.86977H40.4767V0.600098H24.4666V2.86977H28.8157V17.7925H12.5474V2.86977H16.8965V0.600098H0.845703V2.86977H5.19478V37.8934H0.845703V40.1631V40.1767Z" fill="white"/>
    <path d="M17.0874 58.1708C16.7068 58.1844 16.3263 58.0893 15.9865 57.899C15.7011 57.7223 15.4837 57.4505 15.3342 57.1515C15.1847 56.7981 15.1031 56.4312 15.1167 56.0506C15.1167 55.6021 15.1847 55.1401 15.3342 54.7051C15.4701 54.2566 15.6739 53.8353 15.9322 53.4412C16.1904 53.0471 16.4894 52.6937 16.8292 52.3811C17.1553 52.0821 17.5359 51.8239 17.9436 51.6472C18.3377 51.4705 18.7591 51.389 19.194 51.389C19.5609 51.3754 19.9143 51.4705 20.2269 51.6608C20.4987 51.8375 20.7161 52.1093 20.8385 52.4083C20.988 52.7617 21.0559 53.1422 21.0423 53.5227C21.0423 54.1071 20.9336 54.6916 20.7161 55.2352C20.5123 55.7788 20.2133 56.2953 19.8327 56.7438C19.4794 57.1651 19.0445 57.532 18.5688 57.8039C18.1203 58.0621 17.6038 58.198 17.0874 58.198M17.3592 57.6408C17.631 57.6408 17.9028 57.532 18.1203 57.3554C18.3921 57.1379 18.6096 56.8661 18.7862 56.5671C18.9901 56.2137 19.1668 55.8604 19.3163 55.4798C19.4658 55.0993 19.5745 54.7051 19.6561 54.2974C19.724 53.9441 19.7648 53.5907 19.7648 53.2373C19.7648 53.0063 19.7376 52.7752 19.6968 52.5578C19.656 52.3811 19.5745 52.2044 19.4386 52.0821C19.2891 51.9598 19.0852 51.8918 18.8814 51.9054C18.596 51.9054 18.3241 52.0142 18.0931 52.2044C17.8213 52.4219 17.5902 52.6937 17.4136 52.9927C17.1961 53.3325 17.0194 53.6994 16.8835 54.08C16.734 54.4605 16.6117 54.8682 16.5302 55.2624C16.4486 55.6157 16.4078 55.9691 16.4078 56.336C16.4078 56.5535 16.435 56.7845 16.4894 57.002C16.5302 57.1787 16.6389 57.3554 16.7748 57.4777C16.9379 57.6 17.1553 57.668 17.3592 57.6544" fill="white"/>
    <path d="M21.9521 60.4001C21.6531 60.4137 21.3541 60.3321 21.0959 60.169C20.9056 60.0331 20.7969 59.8021 20.7969 59.571C20.7969 59.3672 20.8784 59.1633 21.0415 59.0274C21.2046 58.8779 21.4085 58.7964 21.6259 58.8099C21.7618 58.8099 21.9113 58.8507 22.0201 58.9323C22.1288 59.0138 22.1831 59.1361 22.1696 59.2584C22.1696 59.3672 22.1288 59.4623 22.0608 59.5303C21.9929 59.5846 21.9521 59.6662 21.9521 59.7477C21.9521 59.87 22.0472 59.9244 22.2511 59.9244C22.4006 59.9244 22.5501 59.87 22.686 59.7885C22.9035 59.6526 23.0801 59.4623 23.2025 59.2449C23.4199 58.8643 23.5694 58.4566 23.651 58.0353L25.1188 51.9737H23.7189L23.8276 51.5388H24.6703C24.8334 51.5524 24.9965 51.5117 25.1188 51.4029C25.2139 51.2806 25.2955 51.1447 25.3362 51.0088C25.5265 50.5603 25.7575 50.139 26.043 49.7448C26.3012 49.3915 26.6274 49.0789 26.9943 48.8478C27.3477 48.6304 27.7554 48.5217 28.1631 48.5217C28.4893 48.4945 28.8155 48.5896 29.0873 48.7799C29.2912 48.9158 29.3999 49.1468 29.4135 49.3915C29.4135 49.5953 29.3319 49.7992 29.1824 49.9487C29.0329 50.1118 28.8291 50.2069 28.6116 50.1933C28.4621 50.1933 28.3262 50.1526 28.2039 50.071C28.0816 49.9895 28.0136 49.8536 28.0272 49.7177C28.0272 49.6089 28.0544 49.4866 28.1359 49.4051C28.2039 49.3371 28.2447 49.2556 28.2447 49.1604C28.2447 49.1197 28.2175 49.0789 28.1903 49.0381C28.1224 48.9973 28.0408 48.9837 27.9593 48.9837C27.7962 48.9837 27.6331 49.0381 27.4836 49.1332C27.2797 49.2556 27.1166 49.4323 27.0079 49.6361C26.8312 49.9351 26.7089 50.2477 26.6274 50.5875L26.4235 51.5524H27.4972V51.6747L27.4156 51.9873H26.3148L25.146 57.1111C25.01 57.7635 24.7654 58.3886 24.3849 58.9459C24.0859 59.3944 23.6917 59.7749 23.2296 60.0467C22.8491 60.2778 22.4006 60.4001 21.9657 60.4001" fill="white"/>
    <path d="M39.3217 55.0996C39.3488 55.6025 39.5799 56.0646 39.974 56.3772C40.4089 56.717 40.9526 56.8801 41.4962 56.8529C41.9583 56.8801 42.434 56.7577 42.8281 56.4995C43.1543 56.2821 43.3445 55.9151 43.331 55.521C43.3445 55.2491 43.2494 54.9909 43.0591 54.8142C42.8417 54.624 42.5835 54.4745 42.3116 54.4065C41.8767 54.2842 41.4282 54.1891 40.9797 54.1075C40.4633 54.026 39.974 53.8901 39.4847 53.6998C39.077 53.5367 38.7372 53.2785 38.479 52.9387C38.2072 52.5446 38.0713 52.0689 38.0849 51.5932C38.0849 51.1039 38.2208 50.6283 38.4926 50.2205C38.778 49.8128 39.1586 49.4866 39.6207 49.2828C40.7079 48.8343 41.9175 48.8343 43.0048 49.3099C43.4805 49.5274 43.8882 49.8672 44.2008 50.3021C44.4862 50.7234 44.6629 51.2263 44.6765 51.7427H43.2222C43.1815 51.3078 42.964 50.9001 42.6242 50.6283C42.2437 50.3428 41.768 50.1933 41.2923 50.2069C40.8438 50.1798 40.4089 50.3021 40.042 50.5467C39.7294 50.7642 39.5527 51.1175 39.5799 51.4981C39.5663 51.7563 39.6614 52.0145 39.8517 52.1912C40.0692 52.3815 40.3138 52.5038 40.5856 52.5718C40.8982 52.6533 41.3331 52.7484 41.9039 52.8572C42.4204 52.9387 42.9096 53.0746 43.3989 53.2649C43.8066 53.428 44.16 53.6862 44.4318 54.026C44.7172 54.4065 44.8531 54.8686 44.826 55.3443C44.826 55.8471 44.69 56.35 44.4046 56.7713C44.1056 57.2062 43.6979 57.546 43.2222 57.7499C42.6786 57.9945 42.0942 58.1168 41.5098 58.1032C40.871 58.1168 40.2187 57.9809 39.6342 57.7227C39.1178 57.4916 38.6829 57.1247 38.3703 56.649C38.0577 56.1869 37.9082 55.6297 37.9082 55.0725L39.3624 55.1132L39.3217 55.0996Z" fill="white"/>
    <path d="M50.1121 51.1445C50.4518 50.4785 50.9819 49.9213 51.6207 49.5407C52.3138 49.1466 53.1157 48.9563 53.9039 48.9699C54.5291 48.9699 55.1543 49.0922 55.7251 49.3505C56.2551 49.5951 56.7172 49.9756 57.057 50.4513C57.4104 50.9406 57.6278 51.5114 57.7094 52.0958H56.228C56.1056 51.5658 55.8066 51.0901 55.3853 50.7503C54.9368 50.4106 54.3932 50.2475 53.836 50.2611C53.3195 50.2611 52.8031 50.397 52.3682 50.6824C51.9468 50.9678 51.6071 51.3619 51.4032 51.8376C50.9547 52.9249 50.9547 54.148 51.4032 55.2353C51.6071 55.711 51.9333 56.1051 52.3682 56.3905C52.8031 56.6759 53.3059 56.8118 53.836 56.8118C54.3932 56.8254 54.9368 56.6623 55.3853 56.3226C55.8066 55.9828 56.1056 55.5071 56.228 54.9771H57.7094C57.6278 55.5751 57.4104 56.1459 57.057 56.6352C56.7172 57.1108 56.2687 57.4778 55.7387 57.7224C55.1679 57.9807 54.5427 58.1166 53.9039 58.103C53.1021 58.1166 52.3138 57.9263 51.6207 57.5458C50.9683 57.1788 50.4383 56.6216 50.1121 55.9556C49.4053 54.4334 49.4053 52.6802 50.1121 51.158" fill="white"/>
    <path d="M70.5401 55.8743C70.1868 56.5539 69.6567 57.1111 68.9908 57.5052C67.5909 58.2935 65.8649 58.2935 64.465 57.5052C63.8127 57.1111 63.269 56.5539 62.9157 55.8743C62.1818 54.3929 62.1818 52.6533 62.9157 51.1855C63.269 50.5059 63.7991 49.9487 64.465 49.5546C65.8649 48.7663 67.5909 48.7663 68.9908 49.5546C69.6431 49.9487 70.1868 50.5059 70.5401 51.1855C71.274 52.6669 71.274 54.4065 70.5401 55.8743ZM64.2476 55.222C64.465 55.6977 64.8184 56.1054 65.2533 56.3908C66.1639 56.948 67.3055 56.948 68.2161 56.3908C68.651 56.1054 69.0044 55.6977 69.2218 55.222C69.6975 54.1483 69.6975 52.9251 69.2218 51.8514C69.0044 51.3758 68.651 50.968 68.2161 50.6826C67.3055 50.1254 66.1639 50.1254 65.2533 50.6826C64.8184 50.968 64.465 51.3758 64.2476 51.8514C63.7719 52.9251 63.7719 54.1483 64.2476 55.222Z" fill="white"/>
    <path d="M75.0645 49.0517H82.0773V50.3564H79.3048V58.0216H77.837V50.3564H75.0645V49.0381V49.0517Z" fill="white"/>
    <path d="M87.0391 58.0217V49.0518H88.5069V56.717H92.3667V58.0217H87.0391Z" fill="white"/>
    <path d="M96.7148 58.0217L100.072 49.0518H101.825L105.168 58.0217H103.592L102.749 55.8064H99.0661L98.237 58.0217H96.7148ZM99.4874 54.5425H102.341L100.901 50.6283L99.4874 54.5425Z" fill="white"/>
    <path d="M109.953 58.0217V49.0518H111.299L115.675 55.4123V49.0518H117.129V58.0217H115.784L111.407 51.6612V58.0217H109.953Z" fill="white"/>
    <path d="M122.592 49.0517H125.446C126.275 49.0381 127.104 49.2284 127.838 49.6089C128.504 49.9759 129.047 50.5195 129.414 51.1854C130.148 52.6668 130.148 54.3929 129.414 55.8743C129.061 56.5402 128.504 57.0975 127.838 57.4508C127.104 57.845 126.275 58.0352 125.446 58.0081H122.592V49.0381V49.0517ZM125.446 56.7441C126.275 56.7985 127.09 56.4859 127.675 55.8743C128.721 54.488 128.721 52.5853 127.675 51.199C127.09 50.601 126.275 50.2749 125.446 50.3292H124.06V56.7441H125.446Z" fill="white"/>
  </g>
  <defs>
    <clipPath id="clip0_2345_975">
      <rect width="161.31" height="59.7998" fill="white" transform="translate(0.845703 0.600098)"/>
    </clipPath>
  </defs>
</svg>
