<svg width="95" height="26" viewBox="0 0 95 26" fill="none" xmlns="http://www.w3.org/2000/svg">
<path d="M12.0611 11.3715V11.2615C14.4673 10.4665 16.5976 8.41086 16.5976 5.62743C16.5976 2.16888 13.3533 0.439941 8.81675 0.439941H0.5V0.628314C1.47673 2.01147 1.79153 3.08045 1.79153 5.12422V20.9067C1.79153 22.9504 1.47673 24.0194 0.5 25.4026V25.5909H9.54072C14.0772 25.5909 18.8969 23.1072 18.8969 17.9829C18.8969 13.8434 15.7806 11.708 12.0611 11.3715ZM5.54007 1.79148H8.12314C11.021 1.79148 12.9428 3.26882 12.9428 6.16159C12.9428 9.05435 11.0527 11.2858 8.65836 11.2858H5.53941V1.79148H5.54007ZM9.0055 24.2387C7.7958 24.2387 6.66464 24.0016 5.54007 23.4806V12.638H8.65902C12.2505 12.638 14.8963 14.3986 14.8963 18.2655C14.8963 22.1324 12.3132 24.2387 9.0055 24.2387Z" fill="#FFFDF7"/>
<path d="M68.0391 0.628484C69.0158 2.01164 69.3306 3.08062 69.3306 5.12439V20.9068C69.3306 22.9506 69.0158 24.0196 68.0391 25.4027V25.5911H74.3707V25.4027C73.3939 24.0196 73.0791 22.9506 73.0791 20.9068V5.12373C73.0791 3.07996 73.3939 2.01098 74.3707 0.627826V0.439453H68.0391V0.627826V0.628484Z" fill="#FFFDF7"/>
<path d="M94.3111 20.4346C91.9801 23.2641 90.2788 24.1441 87.1605 24.1441H83.0655V12.6692H87.8534C89.8696 12.6692 90.9724 13.2033 92.5154 14.9639H92.7041V8.92741H92.5154C91.0351 10.7196 89.9323 11.2854 87.8534 11.2854H83.0655V1.82261H86.5309C89.5548 1.82261 91.1928 2.51418 93.4294 4.74633H93.6181L93.3033 0.439453H78.0254V0.627826C79.0021 2.01098 79.3169 3.07996 79.3169 5.12373V20.9062C79.3169 22.95 79.0021 24.0189 78.0254 25.4021V25.5905H94.154L94.5005 20.4346H94.3118H94.3111Z" fill="#FFFDF7"/>
<path d="M59.4074 11.5059L56.1941 9.99691C52.8864 8.45634 51.5322 6.94738 51.5322 4.99846C51.5322 3.04953 52.8554 1.63476 55.3751 1.63476C58.1786 1.63476 61.0137 3.42693 63.6285 6.79063H63.8172L63.4707 1.88636C61.5179 0.754807 58.8715 0 56.4462 0C51.7843 0 48.4766 2.67212 48.4766 6.60225C48.4766 9.8092 50.6188 11.7897 54.1152 13.4245L57.3285 14.9335C60.825 16.5682 62.1482 18.0772 62.1482 20.3093C62.1482 22.7614 60.5102 24.3652 57.5806 24.3652C54.2103 24.3652 51.1547 22.2273 48.7287 18.4546H48.5399L48.9498 23.9878C50.8399 25.2142 53.8011 26 56.5102 26C61.6763 26 65.1728 23.1079 65.1728 18.8004C65.1728 15.7508 63.377 13.3613 59.4081 11.5065L59.4074 11.5059Z" fill="#FFFDF7"/>
<path d="M33.7018 0.0307617C26.5822 0.0307617 20.8809 5.65822 20.8809 13.2353C20.8809 20.8123 26.6772 25.9991 33.4497 25.9991C40.5693 25.9991 46.2706 20.3717 46.2706 12.7946C46.2706 5.21759 40.4749 0.0307617 33.7018 0.0307617ZM38.175 23.4838C34.0166 25.276 28.5984 22.9806 25.7322 16.5674C22.8653 10.1541 24.6294 4.40021 28.9765 2.54547C33.1349 0.753295 38.5531 3.04867 41.4193 9.46189C44.2862 15.8751 42.5221 21.629 38.175 23.4838Z" fill="#FFFDF7"/>
</svg>

