<svg xmlns="http://www.w3.org/2000/svg" width="94" height="26" viewBox="0 0 94 26" fill="none">
  <path d="M11.5611 11.3715V11.2615C13.9673 10.4665 16.0976 8.41086 16.0976 5.62743C16.0976 2.16888 12.8533 0.439941 8.31675 0.439941H0V0.628314C0.976733 2.01147 1.29153 3.08045 1.29153 5.12422V20.9067C1.29153 22.9504 0.976733 24.0194 0 25.4026V25.5909H9.04072C13.5772 25.5909 18.3969 23.1072 18.3969 17.9829C18.3969 13.8434 15.2806 11.708 11.5611 11.3715ZM5.04007 1.79148H7.62314C10.521 1.79148 12.4428 3.26882 12.4428 6.16159C12.4428 9.05435 10.5527 11.2858 8.15836 11.2858H5.03941V1.79148H5.04007ZM8.5055 24.2387C7.2958 24.2387 6.16464 24.0016 5.04007 23.4806V12.638H8.15902C11.7505 12.638 14.3963 14.3986 14.3963 18.2655C14.3963 22.1324 11.8132 24.2387 8.5055 24.2387Z" fill="#2A3B4E"/>
  <path d="M67.5391 0.628484C68.5158 2.01164 68.8306 3.08062 68.8306 5.12439V20.9068C68.8306 22.9506 68.5158 24.0196 67.5391 25.4027V25.5911H73.8707V25.4027C72.8939 24.0196 72.5791 22.9506 72.5791 20.9068V5.12373C72.5791 3.07996 72.8939 2.01098 73.8707 0.627826V0.439453H67.5391V0.627826V0.628484Z" fill="#2A3B4E"/>
  <path d="M93.8111 20.4346C91.4801 23.2641 89.7788 24.1441 86.6605 24.1441H82.5655V12.6692H87.3534C89.3696 12.6692 90.4724 13.2033 92.0154 14.9639H92.2041V8.92741H92.0154C90.5351 10.7196 89.4323 11.2854 87.3534 11.2854H82.5655V1.82261H86.0309C89.0548 1.82261 90.6928 2.51418 92.9294 4.74633H93.1181L92.8033 0.439453H77.5254V0.627826C78.5021 2.01098 78.8169 3.07996 78.8169 5.12373V20.9062C78.8169 22.95 78.5021 24.0189 77.5254 25.4021V25.5905H93.654L94.0005 20.4346H93.8118H93.8111Z" fill="#2A3B4E"/>
  <path d="M58.9074 11.5059L55.6941 9.99691C52.3864 8.45634 51.0322 6.94738 51.0322 4.99846C51.0322 3.04953 52.3554 1.63476 54.8751 1.63476C57.6786 1.63476 60.5137 3.42693 63.1285 6.79063H63.3172L62.9707 1.88636C61.0179 0.754807 58.3715 0 55.9462 0C51.2843 0 47.9766 2.67212 47.9766 6.60225C47.9766 9.8092 50.1188 11.7897 53.6152 13.4245L56.8285 14.9335C60.325 16.5682 61.6482 18.0772 61.6482 20.3093C61.6482 22.7614 60.0102 24.3652 57.0806 24.3652C53.7103 24.3652 50.6547 22.2273 48.2287 18.4546H48.0399L48.4498 23.9878C50.3399 25.2142 53.3011 26 56.0102 26C61.1763 26 64.6728 23.1079 64.6728 18.8004C64.6728 15.7508 62.877 13.3613 58.9081 11.5065L58.9074 11.5059Z" fill="#2A3B4E"/>
  <path d="M33.2018 0.0307617C26.0822 0.0307617 20.3809 5.65822 20.3809 13.2353C20.3809 20.8123 26.1772 25.9991 32.9497 25.9991C40.0693 25.9991 45.7706 20.3717 45.7706 12.7946C45.7706 5.21759 39.9749 0.0307617 33.2018 0.0307617ZM37.675 23.4838C33.5166 25.276 28.0984 22.9806 25.2322 16.5674C22.3653 10.1541 24.1294 4.40021 28.4765 2.54547C32.6349 0.753295 38.0531 3.04867 40.9193 9.46189C43.7862 15.8751 42.0221 21.629 37.675 23.4838Z" fill="#2A3B4E"/>
</svg>
